<svg width="320" height="320" xmlns="http://www.w3.org/2000/svg" xmlns:xlink="http://www.w3.org/1999/xlink">
 <title>Tux</title>
 <defs>
  <filter color-interpolation-filters="sRGB" height="1.216991" y="-0.108496" width="1.215018" x="-0.107509" id="filter14148-8">
   <feGaussianBlur id="feGaussianBlur14150-8" stdDeviation="3.923719"/>
  </filter>
  <filter color-interpolation-filters="sRGB" id="filter14140-3">
   <feGaussianBlur id="feGaussianBlur14142-5" stdDeviation="2.436574"/>
  </filter>
  <filter color-interpolation-filters="sRGB" id="filter14176-5">
   <feGaussianBlur id="feGaussianBlur14178-0" stdDeviation="0.370256"/>
  </filter>
  <filter color-interpolation-filters="sRGB" height="1.085339" y="-0.04267" width="1.202071" x="-0.101035" id="filter15053-7">
   <feGaussianBlur id="feGaussianBlur15055-3" stdDeviation="1.132203"/>
  </filter>
  <filter color-interpolation-filters="sRGB" height="1.301204" y="-0.150602" width="1.140911" x="-0.070456" id="filter14812-5">
   <feGaussianBlur id="feGaussianBlur14814-2" stdDeviation="1.025243"/>
  </filter>
  <filter color-interpolation-filters="sRGB" height="1.301204" y="-0.150602" width="1.140911" x="-0.070456" id="filter14812-0-9">
   <feGaussianBlur id="feGaussianBlur14814-6-7" stdDeviation="1.025243"/>
  </filter>
  <filter color-interpolation-filters="sRGB" height="1.468181" y="-0.23409" width="1.40101" x="-0.200505" id="filter14897-2">
   <feGaussianBlur id="feGaussianBlur14899-5" stdDeviation="2.844436"/>
  </filter>
  <filter color-interpolation-filters="sRGB" height="1.213444" y="-0.106722" width="1.182821" x="-0.091411" id="filter14951-8">
   <feGaussianBlur id="feGaussianBlur14953-7" stdDeviation="1.296783"/>
  </filter>
  <filter color-interpolation-filters="sRGB" height="1.547449" y="-0.273724" width="1.938659" x="-0.469329" id="filter15211-9">
   <feGaussianBlur id="feGaussianBlur15213-7" stdDeviation="0.859918"/>
  </filter>
  <filter color-interpolation-filters="sRGB" height="1.964527" y="-0.482264" width="2.207794" x="-0.603897" id="filter14706-3">
   <feGaussianBlur id="feGaussianBlur14708-8" stdDeviation="2.640004"/>
  </filter>
  <filter color-interpolation-filters="sRGB" id="filter15115-3">
   <feGaussianBlur id="feGaussianBlur15117-8" stdDeviation="2.209158"/>
  </filter>
  <filter color-interpolation-filters="sRGB" height="1.285998" y="-0.142999" width="1.290031" x="-0.145015" id="filter14416-8">
   <feGaussianBlur id="feGaussianBlur14418-5" stdDeviation="4.778716"/>
  </filter>
  <filter color-interpolation-filters="sRGB" height="1.24989" y="-0.124945" width="1.230585" x="-0.115293" id="filter14432-2">
   <feGaussianBlur id="feGaussianBlur14434-2" stdDeviation="3.172515"/>
  </filter>
  <filter color-interpolation-filters="sRGB" height="1.258537" y="-0.129269" width="1.041824" x="-0.020912" id="filter17044">
   <feGaussianBlur id="feGaussianBlur17046" stdDeviation="0.479464"/>
  </filter>
  <filter color-interpolation-filters="sRGB" height="1.318857" y="-0.159428" width="1.355092" x="-0.177546" id="filter15185-2">
   <feGaussianBlur id="feGaussianBlur15187-7" stdDeviation="0.900832"/>
  </filter>
  <filter color-interpolation-filters="sRGB" id="filter4592-2" x="-0.816596" width="2.633192" y="-0.057824" height="1.115648">
   <feGaussianBlur stdDeviation="1.446308" id="feGaussianBlur4594-6"/>
  </filter>
  <filter color-interpolation-filters="sRGB" id="filter4538-7">
   <feGaussianBlur stdDeviation="0.78546" id="feGaussianBlur4540-9"/>
  </filter>
  <filter color-interpolation-filters="sRGB" id="filter4427-5-7">
   <feGaussianBlur stdDeviation="1.138317" id="feGaussianBlur4429-4-8"/>
  </filter>
  <filter color-interpolation-filters="sRGB" id="filter4487-6">
   <feGaussianBlur stdDeviation="0.643407" id="feGaussianBlur4489-4"/>
  </filter>
  <filter color-interpolation-filters="sRGB" height="1.080093" y="-0.040046" width="1.235063" x="-0.117532" id="filter14666-9">
   <feGaussianBlur id="feGaussianBlur14668-7" stdDeviation="1.352085"/>
  </filter>
  <filter color-interpolation-filters="sRGB" id="filter28502-8" x="-0.154831" width="1.309661" y="-0.214941" height="1.429882">
   <feGaussianBlur stdDeviation="0.898587" id="feGaussianBlur28504-3"/>
  </filter>
  <filter color-interpolation-filters="sRGB" id="filter15145-6">
   <feGaussianBlur id="feGaussianBlur15147-1" stdDeviation="0.758214"/>
  </filter>
  <filter color-interpolation-filters="sRGB" height="1.260552" y="-0.130276" width="1.321912" x="-0.160956" id="filter14963-7">
   <feGaussianBlur id="feGaussianBlur14965-0" stdDeviation="0.848788"/>
  </filter>
  <filter color-interpolation-filters="sRGB" id="filter15177-1">
   <feGaussianBlur id="feGaussianBlur15179-3" stdDeviation="0.110393"/>
  </filter>
  <filter color-interpolation-filters="sRGB" height="1.211459" y="-0.10573" width="1.232893" x="-0.116446" id="filter15173-0">
   <feGaussianBlur id="feGaussianBlur15175-4" stdDeviation="0.110393"/>
  </filter>
  <filter color-interpolation-filters="sRGB" id="filter28584-4" x="-0.107302" width="1.214603" y="-0.136107" height="1.272215">
   <feGaussianBlur stdDeviation="0.264062" id="feGaussianBlur28586-3"/>
  </filter>
  <filter color-interpolation-filters="sRGB" id="filter29493-2" x="-0.234466" width="1.468933" y="-0.146068" height="1.292137">
   <feGaussianBlur stdDeviation="0.512624" id="feGaussianBlur29495-7"/>
  </filter>
  <filter color-interpolation-filters="sRGB" id="filter29447-1">
   <feGaussianBlur stdDeviation="0.134754" id="feGaussianBlur29449-4"/>
  </filter>
  <filter color-interpolation-filters="sRGB" id="filter29350-1">
   <feGaussianBlur stdDeviation="0.1475" id="feGaussianBlur29352-7"/>
  </filter>
  <filter color-interpolation-filters="sRGB" id="filter28927-8" x="-0.157954" width="1.315908" y="-0.209199" height="1.418397">
   <feGaussianBlur stdDeviation="0.248911" id="feGaussianBlur28929-2"/>
  </filter>
  <filter color-interpolation-filters="sRGB" id="filter28949-8" x="-0.178679" width="1.357358" y="-0.181341" height="1.362682">
   <feGaussianBlur stdDeviation="0.519479" id="feGaussianBlur28951-1"/>
  </filter>
  <filter color-interpolation-filters="sRGB" height="1.616501" y="-0.30825" width="1.584359" x="-0.29218" id="filter15133-1">
   <feGaussianBlur id="feGaussianBlur15135-5" stdDeviation="1.740332"/>
  </filter>
  <filter color-interpolation-filters="sRGB" id="filter30475-4">
   <feGaussianBlur stdDeviation="0.931525" id="feGaussianBlur30477-9"/>
  </filter>
  <filter color-interpolation-filters="sRGB" id="filter30479-2" x="-0.076378" width="1.152755" y="-0.129191" height="1.258381">
   <feGaussianBlur stdDeviation="2.035505" id="feGaussianBlur30481-9"/>
  </filter>
  <clipPath id="clipPath391" clipPathUnits="userSpaceOnUse">
   <path fill="url(#linearGradient395)" d="m172.57703,282.808987c1.59929,-0.675069 3.3982,-0.797935 5.10074,-0.478215c1.70253,0.31972 3.31141,1.068665 4.74342,2.05936c2.86402,1.981401 4.98821,4.865079 7.02263,7.718077c4.67189,6.551677 9.16868,13.239957 13.24488,20.191788c3.30635,5.638891 6.34352,11.46263 10.16415,16.753808c2.49398,3.453905 5.3066,6.659014 7.813,10.103592c2.50639,3.444568 4.72794,7.184844 5.83931,11.319836c1.44411,5.372987 0.88463,11.295693 -1.62666,16.244648c-1.76663,3.48146 -4.47646,6.468402 -7.77242,8.49142c-3.29595,2.023018 -7.17064,3.069545 -11.01635,2.922679c-6.11413,-0.233492 -11.69944,-3.345204 -17.38362,-5.650499c-11.58097,-4.696818 -24.15978,-6.170168 -36.09666,-9.828178c-3.66859,-1.124222 -7.27582,-2.454769 -10.96988,-3.488924c-1.64125,-0.459468 -3.30866,-0.863705 -4.85875,-1.579801c-1.55008,-0.716106 -2.99955,-1.781074 -3.86171,-3.275553c-0.66639,-1.155127 -0.94839,-2.515173 -0.93019,-3.854741c0.0182,-1.339568 0.32589,-2.662325 0.77382,-3.921988c0.89585,-2.519317 2.34326,-4.799909 3.32016,-7.287792c1.59511,-4.062277 1.88169,-8.541733 1.66657,-12.911205c-0.21511,-4.369472 -0.91078,-8.700982 -1.20454,-13.065709c-0.13118,-1.94905 -0.18066,-3.922986 0.18479,-5.840836c0.36545,-1.91786 1.17577,-3.792677 2.55771,-5.147825c1.27406,-1.249359 2.96492,-1.991054 4.69643,-2.358857c1.73151,-0.367803 3.51533,-0.38437 5.28367,-0.343792c1.76833,0.040629 3.54067,0.136704 5.30351,-0.010794c1.76284,-0.147528 3.53347,-0.550431 5.06911,-1.444207c1.45996,-0.849724 2.65433,-2.112423 3.64374,-3.497019c0.9894,-1.384597 1.78909,-2.897751 2.60891,-4.392821c0.81983,-1.49507 1.66834,-2.985099 2.74157,-4.303365c1.07324,-1.318266 2.38923,-2.467334 3.94266,-3.123046" id="path393"/>
  </clipPath>
  <clipPath id="clipPath401" clipPathUnits="userSpaceOnUse">
   <path fill="url(#linearGradient395)" id="path403" d="m-67.423123,280.6191c1.59929,-0.66295 3.3982,-0.78361 5.10074,-0.46963c1.70253,0.31398 3.31141,1.04948 4.74342,2.02239c2.86402,1.94583 4.98821,4.77774 7.02263,7.57952c4.67189,6.43406 9.16868,13.00227 13.24488,19.8293c3.30635,5.53766 6.34352,11.25685 10.16415,16.45304c2.49398,3.3919 5.3066,6.53947 7.813,9.92221c2.50639,3.38273 4.72794,7.05586 5.83931,11.11662c1.44411,5.27653 0.88463,11.09291 -1.62666,15.95302c-1.76663,3.41896 -4.47646,6.35228 -7.77242,8.33898c-3.29595,1.9867 -7.17064,3.01444 -11.01635,2.87021c-6.11413,-0.2293 -11.69944,-3.28515 -17.38362,-5.54906c-11.58097,-4.6125 -24.15978,-6.0594 -36.09666,-9.65174c-3.66859,-1.10404 -7.27582,-2.4107 -10.96988,-3.42629c-1.64125,-0.45122 -3.30866,-0.8482 -4.85875,-1.55144c-1.55008,-0.70325 -2.99955,-1.7491 -3.86171,-3.21675c-0.66639,-1.13439 -0.94839,-2.47002 -0.93019,-3.78554c0.0182,-1.31552 0.32589,-2.61453 0.77382,-3.85158c0.89585,-2.47409 2.34326,-4.71374 3.32016,-7.15696c1.59511,-3.98935 1.88169,-8.38839 1.66657,-12.67942c-0.21511,-4.29103 -0.91078,-8.54478 -1.20454,-12.83115c-0.13118,-1.91406 -0.18066,-3.85256 0.18479,-5.73598c0.36545,-1.88343 1.17577,-3.72459 2.55771,-5.05541c1.27406,-1.22693 2.96492,-1.95531 4.69643,-2.31651c1.73151,-0.3612 3.51533,-0.37747 5.28367,-0.33762c1.76833,0.0399 3.54067,0.13425 5.30351,-0.0106c1.76284,-0.14488 3.53347,-0.54055 5.06911,-1.41828c1.45996,-0.83447 2.65433,-2.0745 3.64374,-3.43424c0.9894,-1.35974 1.78909,-2.84573 2.60891,-4.31396c0.81983,-1.46823 1.66834,-2.93151 2.74157,-4.22611c1.07324,-1.2946 2.38923,-2.42304 3.94266,-3.06698"/>
  </clipPath>
  <clipPath id="clipPath419" clipPathUnits="userSpaceOnUse">
   <path fill="url(#linearGradient423)" clip-path="none" id="path421" d="m548.18983,337.21385c-2.6238,3.11482 -6.268,5.17039 -9.89648,7.01985c-6.1886,3.15437 -12.60169,5.92177 -18.41964,9.71654c-3.89802,2.54249 -7.4959,5.52671 -10.86016,8.74238c-2.87719,2.75012 -5.60582,5.68745 -8.83247,8.01771c-3.25567,2.35122 -7.01915,4.05426 -10.99061,4.6502c-4.83026,0.72481 -9.82134,-0.21289 -14.29898,-2.16416c-3.13754,-1.36728 -6.15569,-3.3229 -7.96301,-6.22931c-1.81425,-2.91754 -2.22807,-6.48813 -2.23266,-9.92375c-0.008,-6.07666 1.11824,-12.09004 2.17848,-18.07349c0.88097,-4.97177 1.71949,-9.95483 2.26013,-14.97502c0.98337,-9.13118 0.9763,-18.35278 0.3199,-27.51327c-0.10993,-1.53416 -0.23754,-3.0832 -0.008,-4.60412c0.22922,-1.52092 0.85475,-3.0367 2.02069,-4.03986c1.07696,-0.9266 2.52093,-1.33598 3.93947,-1.4145c1.41854,-0.0785 2.83404,0.14655 4.23982,0.35197c3.31254,0.48405 6.65159,0.8649 9.88917,1.71656c2.04284,0.53738 4.03315,1.25925 6.0722,1.81081c3.40258,0.92039 6.96639,1.36144 10.46739,0.95192c3.76917,-0.44089 7.42987,-1.85678 11.22363,-1.76474c1.55658,0.0378 3.1015,0.33171 4.58649,0.79985c1.51539,0.47772 3.00914,1.16182 4.12281,2.29512c0.84639,0.8613 1.43579,1.94539 1.87872,3.06879c0.65982,1.67352 1.01492,3.457 1.16703,5.24945c0.13475,1.58788 0.11343,3.19441 0.41433,4.75933c0.49503,2.57458 1.84746,4.92305 3.52848,6.93494c1.68102,2.01189 3.68982,3.72048 5.69641,5.40783c1.99908,1.68103 4.0106,3.35469 6.16708,4.82839c1.0121,0.69165 2.05642,1.33949 3.01736,2.10062c0.96094,0.76113 1.84466,1.6468 2.44543,2.71535c0.81492,1.44944 1.06377,3.2077 0.53758,4.87655c-0.5262,1.66885 -1.48162,3.27659 -2.67059,4.68806z"/>
  </clipPath>
  <clipPath id="clipPath426" clipPathUnits="userSpaceOnUse">
   <path fill="url(#linearGradient430)" stroke-width="0.842603" clip-path="none" id="path428" d="m544.36312,336.3449c-2.29559,2.52764 -5.48394,4.19571 -8.65854,5.69652c-5.41448,2.55973 -11.02537,4.80544 -16.11557,7.88485c-3.41042,2.0632 -6.55825,4.48486 -9.50168,7.09433c-2.51729,2.23169 -4.9046,4.6153 -7.72764,6.50627c-2.84842,1.90799 -6.14114,3.28999 -9.61581,3.77358c-4.22606,0.58818 -8.59281,-0.17275 -12.51035,-1.75618c-2.74507,-1.10954 -5.38569,-2.6965 -6.96694,-5.05501c-1.5873,-2.36755 -1.94936,-5.26504 -1.95338,-8.053c-0.007,-4.93114 0.97837,-9.81092 1.90598,-14.66641c0.77077,-4.03453 1.5044,-8.07822 1.97742,-12.15205c0.86036,-7.40983 0.85417,-14.89305 0.27988,-22.32667c-0.0962,-1.24495 -0.20783,-2.50198 -0.007,-3.73619c0.20055,-1.23421 0.74783,-2.46424 1.76793,-3.27829c0.94224,-0.75193 2.20559,-1.08414 3.44669,-1.14785c1.24109,-0.0637 2.47953,0.11892 3.70947,0.28562c2.89818,0.3928 5.81955,0.70185 8.65215,1.39296c1.78731,0.43608 3.52865,1.02187 5.31264,1.46945c2.97696,0.74689 6.09498,1.10479 9.15805,0.77247c3.29769,-0.35777 6.50048,-1.50675 9.81968,-1.43206c1.36187,0.0307 2.71354,0.26918 4.01278,0.64907c1.32583,0.38766 2.63273,0.9428 3.6071,1.86246c0.74051,0.69893 1.25619,1.57866 1.64371,2.49028c0.57728,1.35804 0.88797,2.80532 1.02105,4.25987c0.11789,1.28854 0.0992,2.59222 0.3625,3.86213c0.43311,2.08924 1.61637,3.995 3.08711,5.62762c1.47074,1.63263 3.22827,3.01913 4.98386,4.38839c1.74902,1.36413 3.50892,2.72229 5.39565,3.91818c0.8855,0.56126 1.79919,1.08698 2.63992,1.70462c0.84074,0.61765 1.61392,1.33636 2.13954,2.20348c0.71298,1.1762 0.93071,2.60301 0.47034,3.95726c-0.46038,1.35425 -1.29629,2.65891 -2.33654,3.8043z"/>
  </clipPath>
  <clipPath id="clipPath433" clipPathUnits="userSpaceOnUse">
   <path fill="url(#linearGradient437)" clip-path="none" id="path435" d="m298.18967,278.85167c-2.6238,3.11482 -6.268,5.17039 -9.89648,7.01985c-6.1886,3.15437 -12.60169,5.92177 -18.41964,9.71654c-3.89802,2.54249 -7.4959,5.52671 -10.86016,8.74238c-2.87719,2.75012 -5.60582,5.68745 -8.83247,8.01771c-3.25567,2.35122 -7.01915,4.05426 -10.99061,4.6502c-4.83026,0.72481 -9.82134,-0.21289 -14.29898,-2.16416c-3.13754,-1.36728 -6.15569,-3.3229 -7.96301,-6.22931c-1.81425,-2.91754 -2.22807,-6.48813 -2.23266,-9.92375c-0.008,-6.07666 1.11824,-12.09004 2.17848,-18.07349c0.88097,-4.97177 1.71949,-9.95483 2.26013,-14.97502c0.98337,-9.13118 0.9763,-18.35278 0.3199,-27.51327c-0.10993,-1.53416 -0.23754,-3.0832 -0.008,-4.60412c0.22922,-1.52092 0.85475,-3.0367 2.02069,-4.03986c1.07696,-0.9266 2.52093,-1.33598 3.93947,-1.4145c1.41854,-0.0785 2.83404,0.14655 4.23982,0.35197c3.31254,0.48405 6.65159,0.8649 9.88917,1.71656c2.04284,0.53738 4.03315,1.25925 6.0722,1.81081c3.40258,0.92039 6.96639,1.36144 10.46739,0.95192c3.76917,-0.44089 7.42987,-1.85678 11.22363,-1.76474c1.55658,0.0378 3.1015,0.33171 4.58649,0.79985c1.51539,0.47772 3.00914,1.16182 4.12281,2.29512c0.84639,0.8613 1.43579,1.94539 1.87872,3.06879c0.65982,1.67352 1.01492,3.457 1.16703,5.24945c0.13475,1.58788 0.11343,3.19441 0.41433,4.75933c0.49503,2.57458 1.84746,4.92305 3.52848,6.93494c1.68102,2.01189 3.68982,3.72048 5.69641,5.40783c1.99908,1.68103 4.0106,3.35469 6.16708,4.82839c1.0121,0.69165 2.05642,1.33949 3.01736,2.10062c0.96094,0.76113 1.84466,1.6468 2.44543,2.71535c0.81492,1.44944 1.06377,3.2077 0.53758,4.87655c-0.5262,1.66885 -1.48162,3.27659 -2.67059,4.68806z"/>
  </clipPath>
  <clipPath id="clipPath504" clipPathUnits="userSpaceOnUse">
   <path fill="#020204" stroke-width="0.991084" d="m316.84727,225.44951c5.97679,4.89463 9.76903,12.28597 10.94319,20.00305c0.91574,6.01859 0.32054,12.19496 -1.0124,18.13223c-1.33294,5.93726 -3.39093,11.67615 -5.43351,17.40051c-0.81452,2.2827 -1.63269,4.5871 -1.95634,6.9933c-0.32365,2.40621 -0.1187,4.95426 1.02109,7.08777c1.3066,2.44578 3.74526,4.13021 6.36677,4.92292c2.58816,0.78263 5.38374,0.76618 8.00354,0.10153c2.61979,-0.66466 5.06582,-1.96341 7.19828,-3.64929c5.41763,-4.28306 8.68657,-10.94871 9.95201,-17.81211c1.26545,-6.86339 0.68401,-13.95038 -0.49258,-20.83014c-1.60443,-9.38136 -4.30394,-18.55105 -7.74003,-27.40773c-2.52746,-6.51466 -5.7653,-12.74244 -9.61753,-18.52016c-3.77934,-5.66839 -9.14163,-10.09303 -13.10336,-15.63502c-1.37643,-1.92547 -3.03189,-3.93159 -4.38419,-5.87845c-2.91575,-4.19771 -2.25544,-3.41451 -4.06424,-6.13155c-1.31235,-1.9713 -3.38449,-2.6487 -5.56491,-3.51096c-2.18041,-0.86226 -4.629,-1.11623 -6.88065,-0.47108c-2.96781,0.85034 -5.39233,3.23113 -6.68215,6.08208c-1.28982,2.85095 -1.51545,6.12313 -1.01363,9.2201c0.64739,3.99536 2.44215,7.70258 4.46569,11.18873c2.28537,3.93724 4.93283,7.72707 8.38442,10.65407c3.60205,3.05459 7.95771,5.06875 11.61053,8.0602" id="path506"/>
  </clipPath>
  <clipPath id="clipPath508" clipPathUnits="userSpaceOnUse">
   <path fill="#020204" d="m252.47307,195.03592c-7.07309,8.03686 -14.35222,15.81627 -18.34577,24.50506c-1.97625,4.41329 -2.91077,9.20725 -4.26498,13.84932c-1.5379,5.27176 -3.62609,10.3703 -5.97071,15.33612c-2.16496,4.58531 -4.54982,9.06291 -6.93891,13.53553c-1.7382,3.25409 -3.50514,6.58104 -4.10782,10.22071c-0.47628,2.87632 -0.1985,5.84423 0.53375,8.66626c0.73225,2.82202 1.90965,5.5106 3.23776,8.10601c5.66725,11.07504 14.17003,20.62168 24.24176,27.92472c4.57063,3.31418 9.46669,6.18109 14.60245,8.52595c2.78247,1.27041 5.71355,2.40436 8.77186,2.45744c1.52915,0.0265 3.0741,-0.22544 4.47434,-0.84055c1.40023,-0.6151 2.65068,-1.60373 3.48254,-2.88709c1.02278,-1.5779 1.36992,-3.53829 1.16461,-5.40743c-0.2053,-1.86914 -0.93484,-3.65294 -1.91324,-5.25873c-2.38997,-3.92251 -6.1652,-6.76055 -9.79642,-9.57343c-7.84055,-6.07358 -15.42465,-12.48039 -22.68212,-19.23996c-2.04912,-1.90854 -4.09841,-3.87759 -5.53019,-6.28412c-1.3943,-2.34352 -2.1476,-5.01376 -2.65783,-7.69253c-1.39972,-7.34873 -1.04092,-15.08286 1.45958,-22.13343c0.97822,-2.75826 2.27118,-5.39201 3.51815,-8.03965c2.16133,-4.58906 4.20725,-9.26564 7.04933,-13.46723c3.53798,-5.23037 8.26749,-9.66049 11.15147,-15.27803c2.43423,-4.74149 3.41994,-10.07236 4.36185,-15.31831c0.73693,-4.10434 2.15042,-8.12437 2.86923,-12.23193c-1.40611,2.66567 -5.93796,7.04283 -8.71069,10.5253z" id="path510"/>
  </clipPath>
  <clipPath id="clipPath533" clipPathUnits="userSpaceOnUse">
   <path fill="#020204" d="m409.1875,285.92775c-0.40516,-1.10369 -1.11845,-2.08156 -1.9907,-2.86987c-0.87226,-0.78832 -1.90049,-1.39229 -2.98278,-1.85155c-2.16459,-0.91852 -4.52053,-1.26149 -6.83152,-1.69556c-2.17919,-0.40931 -4.34179,-0.90631 -6.52782,-1.27734c-2.27136,-0.38551 -4.6179,-0.63213 -6.8653,-0.1253c-1.96583,0.44333 -3.7845,1.45879 -5.27172,2.81864c-1.48723,1.35984 -2.64911,3.0564 -3.48499,4.89007c-1.47218,3.22952 -1.93451,6.86503 -1.65394,10.40316c0.20881,2.63325 0.87532,5.34594 2.60877,7.33912c1.40065,1.61052 3.38733,2.61526 5.43398,3.22092c3.52502,1.04316 7.36663,0.98822 10.86038,-0.1553c5.76689,-1.93113 10.87568,-5.77387 14.33034,-10.77903c1.13861,-1.64963 2.11217,-3.44809 2.5532,-5.4034c0.33597,-1.48955 0.34831,-3.08112 -0.1779,-4.51456" id="path535"/>
  </clipPath>
  <clipPath id="clipPath538" clipPathUnits="userSpaceOnUse">
   <path fill="#020204" id="path540" d="m409.1875,285.92775c-0.40516,-1.10369 -1.11845,-2.08156 -1.9907,-2.86987c-0.87226,-0.78832 -1.90049,-1.39229 -2.98278,-1.85155c-2.16459,-0.91852 -4.52053,-1.26149 -6.83152,-1.69556c-2.17919,-0.40931 -4.34179,-0.90631 -6.52782,-1.27734c-2.27136,-0.38551 -4.6179,-0.63213 -6.8653,-0.1253c-1.96583,0.44333 -3.7845,1.45879 -5.27172,2.81864c-1.48723,1.35984 -2.64911,3.0564 -3.48499,4.89007c-1.47218,3.22952 -1.93451,6.86503 -1.65394,10.40316c0.20881,2.63325 0.87532,5.34594 2.60877,7.33912c1.40065,1.61052 3.38733,2.61526 5.43398,3.22092c3.52502,1.04316 7.36663,0.98822 10.86038,-0.1553c5.76689,-1.93113 10.87568,-5.77387 14.33034,-10.77903c1.13861,-1.64963 2.11217,-3.44809 2.5532,-5.4034c0.33597,-1.48955 0.34831,-3.08112 -0.1779,-4.51456"/>
  </clipPath>
  <clipPath id="clipPath622" clipPathUnits="userSpaceOnUse">
   <path fill="url(#radialGradient626)" id="path624" d="m104.75,118.96218c-2.78042,1.91023 -5.11057,4.57487 -6.25,7.75c-1.43603,4.00163 -0.88584,8.48071 0.5,12.5c1.41949,4.11688 3.79379,8.04098 7.37932,10.51234c1.79277,1.23567 3.86809,2.08301 6.0304,2.33859c2.16231,0.25558 4.40928,-0.0949 6.34028,-1.10093c2.35312,-1.22596 4.14782,-3.37278 5.26217,-5.78076c1.11436,-2.40798 1.5888,-5.0701 1.73783,-7.71924c0.18989,-3.37546 -0.14047,-6.80646 -1.25,-10c-1.20527,-3.46909 -3.39005,-6.67055 -6.47275,-8.6666c-1.54136,-0.99803 -3.29195,-1.68356 -5.11089,-1.93515c-1.81893,-0.25158 -3.70476,-0.0633 -5.41636,0.60175c-0.97547,0.37901 -1.88744,0.9074 -2.75,1.5"/>
  </clipPath>
  <clipPath id="clipPath631" clipPathUnits="userSpaceOnUse">
   <path fill="url(#radialGradient635)" id="path633" d="m73.23244,118.96218c-1.78096,0.097 -3.48461,0.91899 -4.78785,2.1367c-1.30323,1.21771 -2.22137,2.81176 -2.78618,4.50357c-1.12962,3.38363 -0.87548,7.05177 -0.6187,10.60973c0.23251,3.22162 0.47041,6.50533 1.67679,9.50158c0.60319,1.49813 1.45024,2.91021 2.58034,4.06395c1.13009,1.15374 2.55173,2.04189 4.11829,2.43447c1.46884,0.36809 3.03816,0.29183 4.48279,-0.16209c1.44462,-0.45392 2.76391,-1.27887 3.84623,-2.33791c1.57904,-1.54507 2.64326,-3.5662 3.25345,-5.68947c0.61019,-2.12328 0.78416,-4.35155 0.7524,-6.56053c-0.0397,-2.76435 -0.40091,-5.53851 -1.26575,-8.16439c-0.86485,-2.62588 -2.24575,-5.10327 -4.1728,-7.08561c-0.93331,-0.96009 -1.99776,-1.80513 -3.19858,-2.39747c-1.20082,-0.59233 -2.54344,-0.92535 -3.88043,-0.85253"/>
  </clipPath>
  <clipPath id="clipPath697" clipPathUnits="userSpaceOnUse">
   <path fill="url(#radialGradient701)" stroke-width="0.77538" id="path699" d="m233.63605,144.63815c-2.51029,-0.0409 -4.99135,0.28921 -7.27146,0.88384c-4.05254,1.05688 -7.57367,2.93934 -10.08468,5.39315c-1.62814,0.85539 -3.05003,1.89919 -4.20722,3.08639c-0.66186,0.67901 -1.24391,1.41694 -1.50131,2.24757c-0.20244,0.65333 -0.19857,1.34469 -0.28524,2.01986c-0.0324,0.25293 -0.0778,0.5073 -0.0362,0.76548c0.0208,0.12909 0.0631,0.25809 0.13756,0.38081c0.0221,0.0364 0.0528,0.0707 0.0806,0.1055c0.0825,0.15031 0.18297,0.29681 0.31473,0.43099c0.28806,0.29334 0.68023,0.53107 1.09417,0.73203c0.41394,0.20097 0.85255,0.36757 1.2815,0.54936c2.28006,0.96628 4.22773,2.32456 5.9925,3.75924c2.3677,1.92485 4.52941,4.06099 7.5099,5.46004c2.10465,0.98794 4.52773,1.552 6.92602,1.72396c2.81637,0.20193 5.58521,-0.12293 8.18167,-0.69344c2.40631,-0.52873 4.69673,-1.27132 6.75202,-2.25401c3.90702,-1.86802 6.98699,-4.60634 11.42445,-5.83442c0.96876,-0.2681 1.99041,-0.45921 2.91317,-0.78993c0.92276,-0.33072 1.76305,-0.8265 2.11948,-1.52711c0.34261,-0.67347 0.2049,-1.45031 0.23569,-2.18968c0.0329,-0.791 0.26357,-1.5559 0.33312,-2.34278c0.0695,-0.78687 -0.0382,-1.6289 -0.62199,-2.35178c-0.12955,-0.16043 -0.28324,-0.31001 -0.45163,-0.45157c-0.0509,-0.29235 -0.22134,-0.58029 -0.46622,-0.83239c-0.50487,-0.51975 -1.29334,-0.87172 -2.09515,-1.11671c-1.09824,-0.33555 -2.25599,-0.50211 -3.39891,-0.69601c-3.51093,-0.59565 -6.96955,-1.47539 -10.29467,-2.60394c-1.65302,-0.56104 -3.27073,-1.18327 -4.90416,-1.77928c-1.67927,-0.61273 -3.38672,-1.20103 -5.16515,-1.57729c-1.49109,-0.31546 -3.00643,-0.47332 -4.51259,-0.49788z"/>
  </clipPath>
  <clipPath id="clipPath816" clipPathUnits="userSpaceOnUse">
   <path fill="#fdfdfb" id="path818" d="m-14.29567,154.81433c-1.0464,1.31136 -1.72773,2.88726 -2.13927,4.51369c-0.41153,1.62642 -0.56228,3.30801 -0.62653,4.98446c-0.12849,3.35291 0.0765,6.77015 -0.81096,10.00604c-0.94874,3.4595 -3.07595,6.45649 -5.15761,9.37795c-3.60485,5.05916 -7.24855,10.25011 -9.02706,16.20217c-1.0771,3.60469 -1.43561,7.42255 -1.04841,11.16474c-4.0353,5.9262 -7.52885,12.22112 -10.4229,18.78069c-4.38619,9.94163 -7.39611,20.5265 -8.45455,31.34105c-1.29605,13.24236 0.39758,26.86184 5.62747,39.09655c3.78131,8.84592 9.41771,16.94379 16.68566,23.2466c3.69541,3.20468 7.79967,5.93944 12.1895,8.09709c15.21252,7.47713 34.01348,7.49101 48.97296,-0.48031c7.81838,-4.16611 14.41789,-10.2582 20.78084,-16.42232c3.83183,-3.71209 7.64353,-7.51249 10.56653,-11.97551c5.62746,-8.59236 7.58747,-19.03566 8.80544,-29.23436c2.12971,-17.83321 2.1984,-36.66998 -5.62137,-52.83816c-2.69219,-5.56638 -6.27896,-10.69891 -10.58065,-15.14052c-1.14547,-7.78087 -3.40638,-15.39666 -6.69212,-22.54215c-2.37045,-5.15502 -5.2683,-10.06187 -7.47079,-15.29085c-0.90422,-2.14672 -1.68995,-4.34486 -2.69346,-6.44699c-1.00352,-2.10213 -2.24145,-4.12498 -3.92446,-5.73541c-1.72343,-1.6491 -3.87096,-2.81824 -6.13593,-3.56631c-2.26498,-0.74806 -4.64917,-1.08697 -7.03147,-1.2068c-4.7646,-0.23966 -9.53872,0.38348 -14.30559,0.19423c-3.79476,-0.15066 -7.57776,-0.81566 -11.36892,-0.59186c-1.89557,0.1119 -3.79087,0.45058 -5.55026,1.1649c-1.7594,0.71432 -3.38173,1.81713 -4.56609,3.30139"/>
  </clipPath>
  <clipPath id="clipPath820" clipPathUnits="userSpaceOnUse">
   <path fill="#fdfdfb" stroke-width="1.04195" d="m-35.29567,161.44377c-1.0464,1.42368 -1.72773,3.13456 -2.13927,4.9003c-0.41153,1.76572 -0.56228,3.59134 -0.62653,5.41138c-0.12849,3.64009 0.0765,7.35002 -0.81096,10.86307c-0.94874,3.75581 -3.07595,7.0095 -5.15761,10.18119c-3.60485,5.49248 -7.24855,11.12804 -9.02706,17.58991c-1.0771,3.91343 -1.43561,8.0583 -1.04841,12.12101c-4.0353,6.43379 -7.52885,13.26788 -10.4229,20.38928c-4.38619,10.79315 -7.39611,22.28463 -8.45455,34.02546c-1.29605,14.37658 0.39758,29.16259 5.62747,42.44522c3.78131,9.60359 9.41771,18.39505 16.68566,25.23771c3.69541,3.47916 7.79967,6.44816 12.1895,8.79061c15.21252,8.11756 34.01348,8.13263 48.97296,-0.52145c7.81838,-4.52294 14.41789,-11.13683 20.78084,-17.82891c3.83183,-4.03004 7.64353,-8.15595 10.56653,-13.00123c5.62746,-9.32831 7.58747,-20.66609 8.80544,-31.73832c2.12971,-19.36065 2.1984,-39.81082 -5.62137,-57.36383c-2.69219,-6.04314 -6.27896,-11.61528 -10.58065,-16.43732c-1.14547,-8.44732 -3.40638,-16.71541 -6.69212,-24.47292c-2.37045,-5.59655 -5.2683,-10.92368 -7.47079,-16.60053c-0.90422,-2.33059 -1.68995,-4.71701 -2.69346,-6.99919c-1.00352,-2.28218 -2.24145,-4.47829 -3.92446,-6.22665c-1.72343,-1.79035 -3.87096,-3.05963 -6.13593,-3.87177c-2.26498,-0.81213 -4.64917,-1.18007 -7.03147,-1.31016c-4.7646,-0.26019 -9.53872,0.41632 -14.30559,0.21086c-3.79476,-0.16356 -7.57776,-0.88552 -11.36892,-0.64255c-1.89557,0.12148 -3.79087,0.48917 -5.55026,1.26467c-1.7594,0.77551 -3.38173,1.97277 -4.56609,3.58416" id="path822"/>
  </clipPath>
  <linearGradient id="linearGradient14132-6">
   <stop stop-color="#b98309" id="stop14134-2" offset="0"/>
   <stop stop-color="#382605" id="stop14136-2" offset="1"/>
  </linearGradient>
  <linearGradient id="linearGradient14168-5">
   <stop stop-color="#ebc40c" id="stop14170-8" offset="0"/>
   <stop stop-color="#ebc40c" stop-opacity="0" id="stop14172-0" offset="1"/>
  </linearGradient>
  <linearGradient id="linearGradient14830-4">
   <stop stop-color="#7c7c7c" offset="0" id="stop14832-6"/>
   <stop stop-color="#7c7c7c" stop-opacity="0.329412" offset="1" id="stop14834-5"/>
  </linearGradient>
  <linearGradient id="linearGradient14518-6">
   <stop stop-color="#110800" offset="0" id="stop14540-0"/>
   <stop stop-color="#a65a00" stop-opacity="0.8" id="stop14542-5" offset="0.590667"/>
   <stop stop-color="#ff921e" stop-opacity="0" id="stop14522-4" offset="1"/>
  </linearGradient>
  <linearGradient id="linearGradient15103-0">
   <stop stop-color="#000000" id="stop15105-1" offset="0"/>
   <stop stop-color="#000000" stop-opacity="0" id="stop15107-6" offset="1"/>
  </linearGradient>
  <linearGradient id="linearGradient14392-8">
   <stop stop-color="#3e2a06" id="stop14394-3" offset="0"/>
   <stop stop-color="#ad780a" id="stop14396-0" offset="1"/>
  </linearGradient>
  <linearGradient id="linearGradient17009">
   <stop stop-color="#f3cd0c" id="stop17011" offset="0"/>
   <stop stop-color="#f3cd0c" stop-opacity="0" id="stop17013" offset="1"/>
  </linearGradient>
  <linearGradient id="linearGradient4417-0">
   <stop stop-color="#000000" offset="0" id="stop4419-4-4"/>
   <stop stop-color="#000000" stop-opacity="0.248869" offset="1" id="stop4421-2-0"/>
  </linearGradient>
  <linearGradient id="linearGradient29652-2">
   <stop stop-color="#c8c8c8" id="stop29654-6" offset="0"/>
   <stop stop-color="#797978" id="stop29656-1" offset="1"/>
  </linearGradient>
  <linearGradient id="linearGradient28469-0">
   <stop stop-color="#d2940a" id="stop28479-4" offset="0"/>
   <stop stop-color="#d89c08" id="stop28477-2" offset="0.751437"/>
   <stop stop-color="#b67e07" offset="0.865791" id="stop28485-7"/>
   <stop stop-color="#946106" offset="1" id="stop28473-1"/>
  </linearGradient>
  <linearGradient id="linearGradient28275-8">
   <stop stop-color="#ad780a" offset="0" id="stop28277-1"/>
   <stop stop-color="#d89e08" id="stop28291-9" offset="0.119729"/>
   <stop stop-color="#edb80b" id="stop28289-6" offset="0.255145"/>
   <stop stop-color="#ebc80d" id="stop28287-6" offset="0.391942"/>
   <stop stop-color="#f5d838" id="stop28285-7" offset="0.527411"/>
   <stop stop-color="#f6d811" id="stop28283-7" offset="0.769067"/>
   <stop stop-color="#f5cd31" offset="1" id="stop28279-5"/>
  </linearGradient>
  <linearGradient id="linearGradient29529-6">
   <stop stop-color="#3a2903" offset="0" id="stop29531-0"/>
   <stop stop-color="#735208" id="stop29539-7" offset="0.554728"/>
   <stop stop-color="#ac8c04" offset="1" id="stop29533-8"/>
  </linearGradient>
  <linearGradient id="linearGradient28572-7">
   <stop stop-color="#f5ce2d" offset="0" id="stop28574-5"/>
   <stop stop-color="#d79b08" offset="1" id="stop28576-0"/>
  </linearGradient>
  <linearGradient id="linearGradient29477-3">
   <stop stop-color="#757574" stop-opacity="0" offset="0" id="stop29479-5"/>
   <stop stop-color="#757574" id="stop29487-5" offset="0.26291"/>
   <stop stop-color="#757574" id="stop29485-0" offset="0.5"/>
   <stop stop-color="#757574" stop-opacity="0" offset="1" id="stop29481-3"/>
  </linearGradient>
  <linearGradient id="linearGradient29336-6">
   <stop stop-color="#646464" stop-opacity="0" offset="0" id="stop29338-1"/>
   <stop stop-color="#646464" stop-opacity="0.582524" id="stop29344-7" offset="0.306283"/>
   <stop stop-color="#646464" offset="0.47" id="stop29354-5"/>
   <stop stop-color="#646464" stop-opacity="0.257282" id="stop29356-3" offset="0.72834"/>
   <stop stop-color="#646464" stop-opacity="0" offset="1" id="stop29340-6"/>
  </linearGradient>
  <linearGradient id="linearGradient28976-3">
   <stop stop-color="#747474" offset="0" id="stop28978-7"/>
   <stop stop-color="#8c8c8c" id="stop29259-5" offset="0.125"/>
   <stop stop-color="#a4a4a4" id="stop29257-0" offset="0.25"/>
   <stop stop-color="#d4d4d4" id="stop28984-4" offset="0.5"/>
   <stop stop-color="#d4d4d4" offset="0.619193" id="stop28986-0"/>
   <stop stop-color="#7c7c7c" offset="1" id="stop28980-2"/>
  </linearGradient>
  <linearGradient id="linearGradient28935-8">
   <stop stop-color="#949494" stop-opacity="0.392157" offset="0" id="stop28937-7"/>
   <stop stop-color="#949494" id="stop28943-3" offset="0.5"/>
   <stop stop-color="#949494" stop-opacity="0.392157" offset="1" id="stop28939-8"/>
  </linearGradient>
  <linearGradient id="linearGradient28853-5">
   <stop stop-color="#020204" offset="0" id="stop28855-3"/>
   <stop stop-color="#020204" id="stop28865-0" offset="0.734482"/>
   <stop stop-color="#5c5c5c" offset="1" id="stop28857-9"/>
  </linearGradient>
  <linearGradient id="linearGradient28799-3">
   <stop stop-color="#fefefc" offset="0" id="stop28801-6"/>
   <stop stop-color="#fefefc" id="stop28807-7" offset="0.757339"/>
   <stop stop-color="#d4d4d4" offset="1" id="stop28803-0"/>
  </linearGradient>
  <radialGradient r="14.572236" fy="137.66095" fx="223.19559" cy="137.66095" cx="223.19559" gradientTransform="matrix(0.81524244,-0.03431182,0.02961133,1.2479887,-208.43744,-35.542647)" gradientUnits="userSpaceOnUse" id="radialGradient18806" xlink:href="#linearGradient28799-3"/>
  <radialGradient r="14.572236" fy="137.66095" fx="223.19559" cy="137.66095" cx="223.19559" gradientTransform="matrix(1.0857794,-0.03431182,0.03943781,1.2479887,-233.54194,-35.542647)" gradientUnits="userSpaceOnUse" id="radialGradient18808" xlink:href="#linearGradient28799-3"/>
  <radialGradient r="15.382211" fy="150.65126" fx="275.53763" cy="150.65126" cx="275.53763" gradientTransform="matrix(0.69784558,-0.50717348,0.46034105,0.63340638,-271.10191,183.03011)" gradientUnits="userSpaceOnUse" id="radialGradient18810" xlink:href="#linearGradient28853-5"/>
  <linearGradient y2="1.114047" x2="1.108953" y1="-0.043007" x1="0.146226" id="linearGradient18812" xlink:href="#linearGradient28935-8"/>
  <linearGradient y2="0.832945" x2="0.712254" y1="0.471887" x1="0.272693" id="linearGradient18814" xlink:href="#linearGradient28976-3"/>
  <linearGradient y2="0.979909" x2="0.950502" y1="0.030856" x1="0.023054" id="linearGradient18816" xlink:href="#linearGradient29336-6"/>
  <linearGradient y2="0.990769" x2="0.959987" y1="-0.033387" x1="0.00341" id="linearGradient18818" xlink:href="#linearGradient29336-6"/>
  <linearGradient y2="1.006845" x2="1.011835" y1="-0.231445" x1="-0.099919" id="linearGradient18820" xlink:href="#linearGradient29477-3"/>
  <radialGradient r="31.111488" fy="193.09949" fx="294.48483" cy="193.09949" cx="294.48483" gradientTransform="matrix(0.93618683,-0.38640412,0.27133164,0.65738721,-244.47527,146.7229)" gradientUnits="userSpaceOnUse" id="radialGradient18822" xlink:href="#linearGradient28469-0"/>
  <linearGradient y2="0.501719" x2="0.956484" y1="0.516254" x1="0.020002" id="linearGradient18824" xlink:href="#linearGradient28275-8"/>
  <radialGradient r="3.230094" fy="147.09335" fx="77.67215" cy="147.09335" cx="77.67215" gradientTransform="matrix(1.0000004,0,0,0.5833264,59.999805,3.054009)" gradientUnits="userSpaceOnUse" id="radialGradient18826" xlink:href="#linearGradient29529-6"/>
  <radialGradient r="1.535033" fy="147.44128" fx="63.125401" cy="147.44128" cx="63.125401" gradientTransform="matrix(1,0,0,1.0751189,59.99984,-69.456344)" gradientUnits="userSpaceOnUse" id="radialGradient18828" xlink:href="#linearGradient29529-6"/>
  <linearGradient y2="0.818791" x2="0.532951" y1="0.228187" x1="0.449076" id="linearGradient18830" xlink:href="#linearGradient28572-7"/>
  <radialGradient r="35.51144" fy="126.53491" fx="268.06998" cy="126.53491" cx="268.06998" gradientTransform="matrix(0.20141143,-0.03316079,0.03065006,0.18616184,-3.1263574,114.03586)" gradientUnits="userSpaceOnUse" id="radialGradient18832" xlink:href="#linearGradient29652-2"/>
  <radialGradient r="27.391165" fy="220.53755" fx="336.22372" cy="220.53755" cx="336.22372" gradientTransform="matrix(-0.69844216,0,0,0.76335815,166.3057,50.219935)" gradientUnits="userSpaceOnUse" id="radialGradient18834" xlink:href="#linearGradient4417-0"/>
  <radialGradient r="27.391165" fy="236.36569" fx="312.14502" cy="236.36569" cx="312.14502" gradientTransform="matrix(1,0,0,0.76335815,-150.00015,-8.142243)" gradientUnits="userSpaceOnUse" id="radialGradient18836" xlink:href="#linearGradient4417-0"/>
  <radialGradient r="10.84542" fy="225.13487" fx="275.55389" cy="225.13487" cx="275.55389" gradientTransform="matrix(1,0,0,1.0692348,-150.00016,-73.222483)" gradientUnits="userSpaceOnUse" id="radialGradient18838" xlink:href="#linearGradient4417-0"/>
  <linearGradient y2="0.705824" x2="0.221451" y1="0.350925" x1="0.168298" id="linearGradient18840" xlink:href="#linearGradient15103-0"/>
  <linearGradient y2="0.087204" x2="0.699048" y1="0.961202" x1="0.142794" id="linearGradient18842" xlink:href="#linearGradient14392-8"/>
  <linearGradient y2="1.571153" x2="0.31483" y1="0.141325" x1="0.340531" id="linearGradient18844" xlink:href="#linearGradient17009"/>
  <radialGradient r="16.845654" fy="303.41541" fx="363.33957" cy="303.41541" cx="363.33957" gradientTransform="matrix(1.3082075,0.35053296,-0.36795399,1.3732236,-150.50951,-298.71133)" gradientUnits="userSpaceOnUse" id="radialGradient18846" xlink:href="#linearGradient14518-6"/>
  <radialGradient r="16.845654" fy="303.41541" fx="363.33957" cy="303.41541" cx="363.33957" gradientTransform="matrix(1.3082075,0.35053296,-0.36795399,1.3732236,-310.50935,-240.34915)" gradientUnits="userSpaceOnUse" id="radialGradient18848" xlink:href="#linearGradient14518-6"/>
  <radialGradient r="20.537666" fy="246.85757" fx="382.23483" cy="246.85757" cx="382.23483" gradientTransform="matrix(0.36025223,0.15680447,-0.07246786,0.16649214,260.61683,181.93825)" gradientUnits="userSpaceOnUse" id="radialGradient18850" xlink:href="#linearGradient14830-4"/>
  <linearGradient y2="0.171811" x2="0.315928" y1="0.179462" x1="0.230027" id="linearGradient18852" xlink:href="#linearGradient14830-4"/>
  <linearGradient y2="1.073964" x2="0.775189" y1="0.224437" x1="0.274353" id="linearGradient18854" xlink:href="#linearGradient14132-6"/>
  <linearGradient y2="1.142535" x2="1.127011" y1="0.55" x1="0.556044" id="linearGradient18856" xlink:href="#linearGradient14168-5"/>
  <linearGradient y2="1.073964" x2="0.775189" y1="0.224437" x1="0.274353" id="linearGradient395" xlink:href="#linearGradient14132-6"/>
  <linearGradient y2="-0.567097" x2="-2.193089" y1="0.3069" x1="-2.749342" id="linearGradient423" xlink:href="#linearGradient14392-8"/>
  <linearGradient y2="-0.567097" x2="-2.193087" y1="0.3069" x1="-2.749341" id="linearGradient430" xlink:href="#linearGradient14392-8"/>
  <linearGradient y2="-0.567097" x2="-2.193088" y1="0.3069" x1="-2.749341" id="linearGradient437" xlink:href="#linearGradient14392-8"/>
  <radialGradient r="14.572236" fy="137.66095" fx="223.19559" cy="137.66095" cx="223.19559" gradientTransform="matrix(1.0857794,-0.03431182,0.03943781,1.2479887,-15.5421,-75.904827)" gradientUnits="userSpaceOnUse" id="radialGradient626" xlink:href="#linearGradient28799-3"/>
  <radialGradient r="14.572236" fy="137.66095" fx="223.19559" cy="137.66095" cx="223.19559" gradientTransform="matrix(0.81524244,-0.03431182,0.02961133,1.2479887,9.5624,-75.904827)" gradientUnits="userSpaceOnUse" id="radialGradient635" xlink:href="#linearGradient28799-3"/>
  <radialGradient r="31.111488" fy="193.09949" fx="294.48483" cy="193.09949" cx="294.48483" gradientTransform="matrix(0.81494503,-0.25452614,0.31491054,0.43302392,-75.371375,150.73818)" gradientUnits="userSpaceOnUse" id="radialGradient701" xlink:href="#linearGradient28469-0"/>
 </defs>
 <metadata id="metadata27455">image/svg+xmlTux20 June 2012Garrett LeSageLarry Ewing, the creator of the original Tux graphictuxLinuxpenguinlogoLarry Ewing, Garrett LeSagehttps://github.com/garrett/Tux</metadata>
 <g>
  <title>background</title>
  <rect fill="none" id="canvas_background" height="322" width="322" y="-1" x="-1"/>
 </g>
 <g>
  <title>Layer 1</title>
  <g id="layer2">
   <g id="g463">
    <path fill="#020204" id="path28712-2" d="m152.8125,19.57813c-7.16795,-0.07796 -14.42402,1.37464 -20.73438,4.77539c-6.70663,3.6143 -12.20088,9.39548 -15.58593,16.2207c-3.38347,6.82203 -4.71293,14.10815 -4.91406,22.13281c-0.38217,15.24684 0.34393,31.23872 1.49414,45.73047c0.3054,4.41258 0.85369,6.99499 0.29297,11.52344c-1.88652,9.62986 -10.3132,16.11178 -14.80468,24.57031c-4.9547,9.33089 -7.0434,19.88101 -10.7832,29.76172c-3.42249,9.04236 -8.22758,17.52067 -11.47071,26.62891c-4.53486,12.73604 -5.8905,26.73088 -2.89453,39.91406c2.28386,10.04965 7.0546,19.47291 13.48438,27.5332c-0.93051,1.67688 -1.83224,3.3716 -2.79297,5.03125c-2.97945,5.14693 -6.61956,10.02667 -8.31641,15.72656c-0.84842,2.84995 -1.18242,5.88981 -0.63476,8.8125c0.54765,2.92268 2.02651,5.71858 4.35156,7.57227c1.52203,1.21346 3.35744,1.99485 5.2539,2.43359c1.89647,0.43879 3.85663,0.54531 5.80274,0.50391c7.39459,-0.15718 14.55902,-2.40522 21.71289,-4.2832c4.23946,-1.11291 8.51036,-2.10105 12.80273,-2.98829c15.24055,-3.12209 32.25031,-1.87591 46.39844,0.17579c4.79197,0.72368 9.54981,1.67102 14.25977,2.8125c7.37714,1.78788 14.72878,4.06701 22.3164,4.2832c1.99729,0.0569 4.0106,-0.0306 5.96094,-0.46484c1.95034,-0.43429 3.84211,-1.22688 5.4043,-2.47266c2.32922,-1.85746 3.80834,-4.65745 4.35546,-7.58594c0.54713,-2.9285 0.20917,-5.97702 -0.64843,-8.83008c-1.71521,-5.70613 -5.38873,-10.5749 -8.43555,-15.69531c-1.20215,-2.0203 -2.32023,-4.0926 -3.51367,-6.11719c9.16873,-10.29563 16.54824,-22.20278 20.8164,-35.28125c4.65874,-14.27524 5.51426,-29.64566 3.55274,-44.5332c-1.96148,-14.88754 -6.6821,-29.32114 -12.8984,-42.99023c-7.79769,-17.13839 -14.35278,-23.331 -19.10351,-38.38086c-5.13471,-16.26627 -0.8948,-35.51421 -4.71094,-50.26758c-1.3618,-5.0173 -3.53277,-9.80681 -6.32617,-14.19141c-3.27306,-5.13747 -7.42457,-9.7424 -12.35743,-13.3164c-7.87066,-5.70253 -17.61519,-8.63846 -27.33398,-8.74414l-0.00005,0z"/>
    <path fill="#fdfdfb" d="m124.70417,105.45215c-1.0464,1.31136 -1.72773,2.88726 -2.13927,4.51369c-0.41153,1.62642 -0.56228,3.30801 -0.62653,4.98446c-0.12849,3.35291 0.0765,6.77015 -0.81096,10.00604c-0.94874,3.4595 -3.07595,6.45649 -5.15761,9.37795c-3.60485,5.05916 -7.24855,10.25011 -9.02706,16.20217c-1.0771,3.60469 -1.43561,7.42255 -1.04841,11.16474c-4.0353,5.9262 -7.52885,12.22112 -10.4229,18.78069c-4.38619,9.94163 -7.39611,20.5265 -8.45455,31.34105c-1.29605,13.24236 0.39758,26.86184 5.62747,39.09655c3.78131,8.84592 9.41771,16.94379 16.68566,23.2466c3.69541,3.20468 7.79967,5.93944 12.1895,8.09709c15.21252,7.47713 34.01348,7.49101 48.97296,-0.48031c7.81838,-4.16611 14.41789,-10.2582 20.78084,-16.42232c3.83183,-3.71209 7.64353,-7.51249 10.56653,-11.97551c5.62746,-8.59236 7.58747,-19.03566 8.80544,-29.23436c2.12971,-17.83321 2.1984,-36.66998 -5.62137,-52.83816c-2.69219,-5.56638 -6.27896,-10.69891 -10.58065,-15.14052c-1.14547,-7.78087 -3.40638,-15.39666 -6.69212,-22.54215c-2.37045,-5.15502 -5.2683,-10.06187 -7.47079,-15.29085c-0.90422,-2.14672 -1.68995,-4.34486 -2.69346,-6.44699c-1.00352,-2.10213 -2.24145,-4.12498 -3.92446,-5.73541c-1.72343,-1.6491 -3.87096,-2.81824 -6.13593,-3.56631c-2.26498,-0.74806 -4.64917,-1.08697 -7.03147,-1.2068c-4.7646,-0.23966 -9.53872,0.38348 -14.30559,0.19423c-3.79476,-0.15066 -7.57776,-0.81566 -11.36892,-0.59186c-1.89557,0.1119 -3.79087,0.45058 -5.55026,1.1649c-1.7594,0.71432 -3.38173,1.81713 -4.56609,3.30139" id="path29719-5"/>
   </g>
   <g id="g562">
    <path opacity="0.25" fill="url(#radialGradient18834)" filter="url(#filter4487-6)" d="m107.916671,153.230897c1.015846,1.52387 -0.631832,6.77829 23.044314,3.4153c0,0 -4.157828,0.4573 -8.25652,1.40419c-6.373226,2.1334 -11.924207,4.51706 -16.206653,7.67524c-4.24268,3.12167 -7.349537,7.19694 -11.242613,10.69705c0,0 6.304499,-11.5187 7.876177,-14.98742c1.571666,-3.46872 -0.263124,-3.30999 0.979924,-8.4136c1.243047,-5.1036 4.286463,-10.00699 4.286463,-10.00699c0,0 -2.484536,7.21088 -0.481091,10.21623z" id="path4400-1"/>
    <path opacity="0.42" fill="url(#radialGradient18836)" filter="url(#filter4427-5-7)" d="m184.04993,151.8559c-4.82509,3.36138 -7.65241,2.96341 -13.50685,3.62087c-5.85444,0.65746 -21.69838,0.41943 -21.69838,0.41943c0,0 2.29371,-0.0427 7.37759,0.90419c5.08388,0.94693 15.45307,1.85232 21.29176,4.07468c5.83869,2.22236 7.96846,2.8566 11.51723,5.10056c5.05107,3.19388 8.75817,8.19694 13.587,11.69705c0,0 0.23377,-4.6437 -1.71568,-8.11242c-1.94945,-3.46872 -7.19037,-8.93499 -8.7322,-14.0386c-1.54183,-5.1036 -2.27429,-15.13199 -2.27429,-15.13199c0,0 -1.02108,8.10485 -5.84618,11.46623z" id="path4400-2-8"/>
    <path opacity="0.2" fill="url(#radialGradient18838)" filter="url(#filter4538-7)" d="m138.66974,144.67794c-0.17937,1.45594 -0.41189,2.90533 -0.69695,4.34431c-0.14052,0.70936 -0.2949,1.41989 -0.55905,2.09306c-0.26414,0.67317 -0.64419,1.31214 -1.18125,1.79639c-0.47071,0.42443 -1.04439,0.71595 -1.62069,0.97975c-2.24827,1.02916 -4.6544,1.71261 -7.10798,2.01899c0.97993,0.0719 1.95856,0.16127 2.93528,0.2682c0.61534,0.0674 1.23207,0.14208 1.83169,0.29586c0.59961,0.15377 1.18472,0.38955 1.68422,0.75518c0.54781,0.40099 0.97799,0.94833 1.29931,1.54636c0.64023,1.19159 0.85435,2.56281 0.97272,3.91031c0.15139,1.72336 0.16244,3.45904 0.033,5.18419c0.11585,-1.15429 0.35775,-2.29589 0.72,-3.39797c0.65284,-1.98614 1.70416,-3.84789 3.11974,-5.38642c0.56171,-0.6105 1.18038,-1.17036 1.85876,-1.6479c2.07821,-1.46294 4.71804,-2.1055 7.23612,-1.76133c-2.55897,0.11302 -5.14896,-0.69089 -7.19419,-2.23302c-1.04161,-0.78539 -1.94875,-1.76287 -2.57976,-2.90463c-0.97579,-1.76561 -1.25012,-3.90675 -0.75097,-5.86133" id="path4491-9"/>
    <path opacity="0.11" filter="url(#filter4592-2)" d="m132.49984,178.71875c-1.22954,4.67934 -2.07519,9.45949 -2.52566,14.27665c-0.63702,6.81216 -0.48368,13.6725 -0.84934,20.5046c-0.31029,5.79753 -0.99107,11.65587 0.0159,17.3737c0.48017,2.72655 1.34273,5.38547 2.55456,7.87467c0.19249,-0.95006 0.33356,-1.91054 0.42239,-2.87583c0.42661,-4.63604 -0.3541,-9.28689 -0.61781,-13.93504c-0.46225,-8.14744 0.66569,-16.2899 1.125,-24.4375c0.3526,-6.25476 0.31082,-12.53173 -0.125,-18.78125l-0.00004,0" id="path4542-7"/>
    <path opacity="0.25" fill="#7c7c7c" filter="url(#filter15211-9)" d="m110.57376,132.641662c-0.118001,-1.435303 -2.168732,-1.650643 -3.082901,-0.935c-0.772075,0.604409 -1.496864,2.671065 -0.830146,3.477816c1.082514,1.309884 4.074863,-0.574619 3.913047,-2.542815z" id="path28767-9-3"/>
    <path opacity="0.75" fill="#7c7c7c" filter="url(#filter14706-3)" id="path15189-4" d="m213.996875,171.860743c1.187619,-0.183642 8.517241,6.047498 7.514388,8.362805c-1.002861,2.315307 -2.88467,0.919137 -4.23115,0.935c-1.346472,0.015862 -5.029941,1.688159 -5.647149,0.632242c-0.617208,-1.055916 1.629234,-3.520042 2.804934,-5.580177c0.946717,-1.658911 -1.62863,-4.166172 -0.440892,-4.34989l-0.000132,0.00002z"/>
    <path fill="#7c7c7c" filter="url(#filter15133-1)" d="m169.242571,32.486585c-2.563514,1.808941 -1.443597,4.067856 -0.341101,6.334733c1.102496,2.266877 -2.424592,8.802555 -2.461716,9.084445c-0.037101,0.281889 6.942479,-3.313075 8.844519,-5.648117c2.24631,-2.757674 7.923808,3.730776 7.614416,2.743617c0.002304,-1.766482 -11.092603,-14.323629 -13.656117,-12.514677z" id="path28767-3"/>
    <path fill="#838384" filter="url(#filter15185-2)" id="path4596-3" d="m188.68735,108.499997c-2.16217,1.96937 1.01359,4.92767 2.51966,8.40429c0.93626,2.16126 3.52677,5.20509 6.03244,4.7175c1.8848,-0.36677 3.05427,-3.07936 2.87588,-4.99121c-0.34416,-3.68852 -3.45669,-4.55256 -5.7172,-5.81949c-1.79139,-1.00401 -4.19258,-3.69391 -5.71078,-2.31109z"/>
    <path fill="#000000" fill-opacity="0.258824" filter="url(#filter30479-2)" d="m122.367347,123.239177c1.70294,4.93775 5.13035,9.15199 9.18585,12.44354c1.34866,1.0946 2.78217,2.10442 4.36623,2.817c1.58407,0.71257 3.33165,1.11945 5.06238,0.97245c1.69497,-0.14396 3.30747,-0.80936 4.78872,-1.64575c1.48125,-0.8364 2.85602,-1.84688 4.29299,-2.75725c2.46262,-1.56015 5.09984,-2.82139 7.65716,-4.22092c3.08246,-1.68692 6.0696,-3.59014 8.66469,-5.95927c1.18795,-1.08451 2.29575,-2.26795 3.60752,-3.19888c1.31177,-0.93094 2.88299,-1.60572 4.48781,-1.49651c1.20385,0.0819 2.33291,0.59386 3.51249,0.84794c0.58979,0.12704 1.20078,0.18932 1.79722,0.0984c0.59643,-0.0909 1.17972,-0.34439 1.59789,-0.77928c0.51237,-0.53286 0.73641,-1.29981 0.70961,-2.03855c-0.0268,-0.73874 -0.28445,-1.45303 -0.62886,-2.10712c-0.68881,-1.30819 -1.73454,-2.43513 -2.20022,-3.83833c-0.41439,-1.24867 -0.33045,-2.59887 -0.29393,-3.91401c0.03652,-1.31513 0.0075,-2.68902 -0.5986,-3.85671c-0.46159,-0.88922 -1.23613,-1.59525 -2.12164,-2.06391c-0.88551,-0.46867 -1.87858,-0.71001 -2.87608,-0.80365c-1.99501,-0.18727 -3.99393,0.19997 -5.99449,0.31349c-2.65582,0.1507 -5.32196,-0.18176 -7.97725,-0.0221c-3.31129,0.1991 -6.55701,1.16053 -9.87428,1.16645c-3.78598,0.007 -7.56812,-1.23192 -11.30754,-0.63996c-1.60458,0.25401 -3.13478,0.8376 -4.67568,1.35219c-1.54091,0.5146 -3.13275,0.96724 -4.75714,0.94371c-1.8442,-0.0267 -3.62927,-0.66537 -5.46898,-0.79666c-0.91986,-0.0656 -1.86247,-0.00018 -2.72609,0.32326c-0.86361,0.32344 -1.64451,0.92357 -2.06835,1.7426c-0.24287,0.46932 -0.36319,0.99683 -0.38586,1.52479c-0.02266,0.52795 0.05026,1.05702 0.17783,1.56983c0.25513,1.02563 0.72423,1.98285 1.10982,2.96688c1.39251,3.55373 1.69236,7.44806 2.93678,11.05632" id="path28461-8-7" clip-path="url(#clipPath816)"/>
    <path opacity="0.3" fill="#000000" filter="url(#filter30475-4)" d="m117.61894,109.163957c3.30848,2.043861 6.27672,4.554068 8.76949,7.416285c2.31324,2.656083 4.28107,5.668763 7.29931,7.634919c2.13256,1.389203 4.69488,2.171784 7.29406,2.409669c3.05151,0.279279 6.13976,-0.172109 9.08171,-0.96905c2.72664,-0.738616 5.36323,-1.777099 7.78216,-3.151472c4.59823,-2.612588 8.43921,-6.441101 13.51002,-8.158319c1.10703,-0.37489 2.25923,-0.643089 3.32651,-1.105548c1.06727,-0.462469 2.07135,-1.155104 2.58109,-2.134829c0.48998,-0.941748 0.47096,-2.028727 0.63053,-3.062641c0.17071,-1.10611 0.55376,-2.175505 0.76387,-3.27584c0.21011,-1.100335 0.23518,-2.277287 -0.2814,-3.288118c-0.42777,-0.837064 -1.20539,-1.499376 -2.09988,-1.920193c-0.89448,-0.420816 -1.90108,-0.611983 -2.90428,-0.65732c-2.00639,-0.090729 -3.98754,0.382434 -5.98805,0.550508c-2.64955,0.222604 -5.3179,-0.091282 -7.97725,-0.017501c-3.30828,0.091742 -6.56819,0.781872 -9.87428,0.925739c-3.77165,0.164123 -7.53406,-0.384571 -11.30754,-0.507889c-1.63225,-0.053332 -3.2754,-0.026344 -4.8843,0.232616c-1.6089,0.258941 -3.1882,0.756854 -4.54852,1.589488c-1.31998,0.807939 -2.39674,1.904184 -3.60657,2.847148c-0.60491,0.471487 -1.24775,0.907363 -1.95374,1.238842c-0.706,0.331478 -1.4788,0.556818 -2.27031,0.591875c-0.40728,0.018054 -0.81834,-0.014001 -1.2213,0.043476c-0.67617,0.096375 -1.30371,0.454612 -1.69828,0.969501c-0.39458,0.514889 -0.5509,1.179504 -0.42305,1.798644l0,0.000009" id="path28461-84-3" clip-path="url(#clipPath820)"/>
   </g>
   <g id="g481">
    <path fill="#020204" id="path29705-5-0" d="m217.10134,167.087327c6.0848,4.89463 9.94557,12.28597 11.14096,20.00305c0.93229,6.01859 0.32634,12.19496 -1.03069,18.13223c-1.35704,5.93726 -3.45222,11.67615 -5.53172,17.40051c-0.82924,2.2827 -1.66219,4.5871 -1.99169,6.9933c-0.3295,2.40621 -0.12085,4.95426 1.03954,7.08777c1.33022,2.44578 3.81295,4.13021 6.48184,4.92292c2.63494,0.78263 5.48104,0.76618 8.14819,0.10153c2.66714,-0.66466 7.15737,-1.52591 9.32837,-3.21179c5.51555,-4.28306 6.82474,-11.71935 8.13188,-18.24961c1.36319,-6.8103 0.69637,-13.95038 -0.50149,-20.83014c-1.63342,-9.38136 -4.38172,-18.55105 -7.87991,-27.40773c-2.57314,-6.51466 -5.8695,-12.74244 -9.79135,-18.52016c-3.84764,-5.66839 -9.30685,-10.09303 -13.34018,-15.63502c-1.40131,-1.92547 -3.08668,-3.93159 -4.46342,-5.87845c-2.96845,-4.19771 -2.29621,-3.41451 -4.1377,-6.13155c-1.33607,-1.9713 -3.44566,-2.6487 -5.66548,-3.51096c-2.21982,-0.86226 -4.71266,-1.11623 -7.00501,-0.47108c-3.02145,0.85034 -5.48978,3.23113 -6.80291,6.08208c-1.31314,2.85095 -1.54284,6.12313 -1.03195,9.2201c0.65909,3.99536 2.48628,7.70258 4.54639,11.18873c2.32668,3.93724 5.02199,7.72707 8.53596,10.65407c3.66715,3.05459 8.10153,5.06875 11.82037,8.0602"/>
    <path fill="#020204" id="path14967-1-0" d="m102.47291,136.673737c-7.07309,8.03686 -14.35222,15.81627 -18.34577,24.50506c-1.97625,4.41329 -2.91077,9.20725 -4.26498,13.84932c-1.5379,5.27176 -3.62609,10.3703 -5.97071,15.33612c-2.16496,4.58531 -4.54982,9.06291 -6.93891,13.53553c-1.7382,3.25409 -3.50514,6.58104 -4.10782,10.22071c-0.47628,2.87632 -0.1985,5.84423 0.53375,8.66626c0.73225,2.82202 1.90965,5.5106 3.23776,8.10601c5.66725,11.07504 14.17003,20.62168 24.24176,27.92472c4.57063,3.31418 9.46669,6.18109 14.60245,8.52595c2.78247,1.27041 5.71355,2.40436 8.77186,2.45744c1.52915,0.0265 3.0741,-0.22544 4.47434,-0.84055c1.40023,-0.6151 2.65068,-1.60373 3.48254,-2.88709c1.02278,-1.5779 1.36992,-3.53829 1.16461,-5.40743c-0.2053,-1.86914 -0.93484,-3.65294 -1.91324,-5.25873c-2.38997,-3.92251 -6.1652,-6.76055 -9.79642,-9.57343c-7.84055,-6.07358 -15.42465,-12.48039 -22.68212,-19.23996c-2.04912,-1.90854 -4.09841,-3.87759 -5.53019,-6.28412c-1.3943,-2.34352 -2.1476,-5.01376 -2.65783,-7.69253c-1.39972,-7.34873 -1.04092,-15.08286 1.45958,-22.13343c0.97822,-2.75826 2.27118,-5.39201 3.51815,-8.03965c2.16133,-4.58906 4.20725,-9.26564 7.04933,-13.46723c3.53798,-5.23037 8.26749,-9.66049 11.15147,-15.27803c2.43423,-4.74149 3.41994,-10.07236 4.36185,-15.31831c0.73693,-4.10434 2.15042,-8.12437 2.86923,-12.23193c-1.40611,2.66567 -5.93796,7.04283 -8.71069,10.5253z"/>
   </g>
   <g id="g514">
    <path fill="#838384" filter="url(#filter14666-9)" clip-path="url(#clipPath504)" id="path29705-9" d="m202.781099,157.656247c0.493582,0.46774 0.998638,0.94261 1.52711,1.375c3.733427,3.05459 5.720339,6.48526 9.50639,9.47671c6.194771,4.89463 12.480507,13.34358 13.697502,21.06066c0.949139,6.01859 -0.306369,9.28947 -1.837296,16.3878c-1.530917,7.09832 -5.873712,17.14832 -8.219678,23.99211c-0.935507,2.7291 1.894848,1.60306 1.523129,4.4798c-0.182683,1.41384 -0.201232,2.84238 -0.035225,4.25917c0.02311,-0.27104 0.039501,-0.5525 0.070552,-0.82194c0.450813,-3.92274 1.652648,-7.69479 2.961351,-11.39514c2.518876,-7.12214 5.410387,-14.10109 7.403387,-21.40792c1.99301,-7.30683 1.771732,-12.56443 0.73174,-18.84375c-1.307807,-7.89637 -5.9018,-15.18702 -12.407766,-20c-4.600184,-3.40313 -10.024844,-5.58465 -14.921134,-8.5625l-0.000061,0z"/>
    <path opacity="0.95" fill="#7c7c7c" filter="url(#filter15053-7)" clip-path="url(#clipPath508)" id="path15007-0" d="m94.330337,165.907357c-2.32126,2.13749 -4.33307,4.61051 -5.95338,7.31823c-2.66801,4.45854 -4.23905,9.46835 -6.17809,14.28882c-1.44362,3.58886 -3.12519,7.19314 -3.32662,11.05622c-0.10346,1.98418 0.19056,3.96588 0.25671,5.95165c0.0662,1.98578 -0.11756,4.05108 -1.08967,5.78391c-0.81338,1.44988 -2.1659,2.58902 -3.73298,3.14402c2.11547,0.70686 4.00453,2.07546 5.33532,3.86539c1.11451,1.49902 1.82759,3.25366 2.79609,4.85091c0.78716,1.29818 1.75335,2.50124 2.94285,3.44463c1.1895,0.94339 2.61141,1.61974 4.11726,1.81293c2.06623,0.26508 4.23574,-0.42815 5.76541,-1.84225c-1.92538,-18.0357 -0.16195,-36.4572 5.15013,-53.80008c0.33544,-1.09515 0.68725,-2.19828 0.77034,-3.34063c0.0831,-1.14235 -0.12896,-2.34792 -0.82414,-3.2582c-0.37014,-0.48467 -0.86838,-0.87059 -1.4302,-1.1078c-0.56182,-0.2372 -1.18588,-0.32512 -1.79136,-0.25236c-0.60549,0.0727 -1.19096,0.306 -1.68059,0.66954c-0.48964,0.36355 -0.88227,0.85651 -1.12706,1.41507l-0.00002,0"/>
   </g>
   <g id="g457">
    <g id="g444">
     <path opacity="0.2" fill="url(#linearGradient18840)" filter="url(#filter15115-3)" id="path14483-7-4" d="m246.056011,269.769727c-0.468988,1.54919 -1.183133,3.04585 -2.10472,4.41089c-2.033741,3.01237 -4.984992,5.2794 -7.934518,7.37015c-5.030586,3.56589 -10.271621,6.83785 -14.954679,10.89029c-3.137651,2.71513 -5.998146,5.75937 -8.649208,8.96491c-2.267244,2.74146 -4.399063,5.61929 -6.983717,8.05729c-2.607913,2.45993 -5.679165,4.44676 -8.987145,5.52933c-4.023286,1.31667 -8.27457,1.2533 -12.150416,0.25938c-2.715848,-0.69647 -5.364076,-1.90703 -7.046634,-4.0969c-1.689017,-2.19828 -2.236243,-5.15218 -2.431679,-8.05186c-0.345556,-5.12875 0.266651,-10.36956 0.824998,-15.57549c0.463812,-4.3257 0.891591,-8.65475 1.066469,-12.97167c0.318169,-7.85202 -0.201967,-15.63586 -1.264976,-23.27336c-0.17802,-1.27909 -0.371752,-2.56818 -0.263457,-3.88562c0.108018,-1.31741 0.549793,-2.6883 1.474758,-3.70529c0.854387,-0.93937 2.046372,-1.49566 3.23541,-1.76892c1.189048,-0.27325 2.392462,-0.2898 3.586594,-0.3215c2.813844,-0.0747 5.644231,-0.24039 8.41552,0.006c1.748597,0.15559 3.463306,0.47459 5.20951,0.6427c2.913924,0.28052 5.936759,0.13286 8.859318,-0.72369c3.14642,-0.92215 6.147239,-2.65158 9.344058,-3.12742c1.311658,-0.19521 2.627793,-0.17251 3.903223,0.006c1.301533,0.18218 2.59637,0.54175 3.596503,1.33598c0.760088,0.60362 1.316402,1.43281 1.751687,2.31655c0.648415,1.31651 1.046609,2.77031 1.274516,4.2613c0.201916,1.32082 0.273551,2.68017 0.613963,3.95737c0.560021,2.10123 1.828765,3.88647 3.355196,5.33963c1.52642,1.45316 3.311687,2.60245 5.093934,3.73413c1.775552,1.12743 3.561168,2.24684 5.457595,3.17629c0.890051,0.43621 1.804757,0.83074 2.655642,1.33307c0.850875,0.50234 1.643742,1.12107 2.208753,1.93549c0.766404,1.10471 1.073801,2.55273 0.843769,3.97474l0.000021,-0.00001"/>
     <path fill="url(#linearGradient18842)" d="m263.18967,278.25167c-2.6238,3.11482 -6.268,5.17039 -9.89648,7.01985c-6.1886,3.15437 -12.60169,5.92177 -18.41964,9.71654c-3.89802,2.54249 -7.4959,5.52671 -10.86016,8.74238c-2.87719,2.75012 -5.60582,5.68745 -8.83247,8.01771c-3.25567,2.35122 -7.01915,4.05426 -10.99061,4.6502c-4.83026,0.72481 -9.82134,-0.21289 -14.29898,-2.16416c-3.13754,-1.36728 -6.15569,-3.3229 -7.96301,-6.22931c-1.81425,-2.91754 -2.22807,-6.48813 -2.23266,-9.92375c-0.008,-6.07666 1.11824,-12.09004 2.17848,-18.07349c0.88097,-4.97177 1.71949,-9.95483 2.26013,-14.97502c0.98337,-9.13118 0.9763,-18.35278 0.3199,-27.51327c-0.10993,-1.53416 -0.23754,-3.0832 -0.008,-4.60412c0.22922,-1.52092 0.85475,-3.0367 2.02069,-4.03986c1.07696,-0.9266 2.52093,-1.33598 3.93947,-1.4145c1.41854,-0.0785 2.83404,0.14655 4.23982,0.35197c3.31254,0.48405 6.65159,0.8649 9.88917,1.71656c2.04284,0.53738 4.03315,1.25925 6.0722,1.81081c3.40258,0.92039 6.96639,1.36144 10.46739,0.95192c3.76917,-0.44089 7.42987,-1.85678 11.22363,-1.76474c1.55658,0.0378 3.1015,0.33171 4.58649,0.79985c1.51539,0.47772 3.00914,1.16182 4.12281,2.29512c0.84639,0.8613 1.43579,1.94539 1.87872,3.06879c0.65982,1.67352 1.01492,3.457 1.16703,5.24945c0.13475,1.58788 0.11343,3.19441 0.41433,4.75933c0.49503,2.57458 1.84746,4.92305 3.52848,6.93494c1.68102,2.01189 3.68982,3.72048 5.69641,5.40783c1.99908,1.68103 4.0106,3.35469 6.16708,4.82839c1.0121,0.69165 2.05642,1.33949 3.01736,2.10062c0.96094,0.76113 1.84466,1.6468 2.44543,2.71535c0.81492,1.44944 1.06377,3.2077 0.53758,4.87655c-0.5262,1.66885 -1.48162,3.27659 -2.67059,4.68806z" id="path14296-0" clip-path="none"/>
     <path fill="#cd8907" filter="url(#filter14416-8)" d="m297.891127,270.962167c-0.61724,1.54745 -1.48971,2.99275 -2.57146,4.2598c-2.40248,2.814 -5.72921,4.65444 -9.03774,6.31099c-5.65305,2.83043 -11.50277,5.31761 -16.82133,8.73539c-3.55362,2.28361 -6.84076,4.96564 -9.9178,7.85959c-2.62917,2.47273 -5.12496,5.116 -8.06607,7.20809c-2.98093,2.12042 -6.41793,3.6468 -10.03693,4.18063c-4.40931,0.65041 -8.96019,-0.19314 -13.05822,-1.94562c-2.85719,-1.22185 -5.61733,-2.97002 -7.27205,-5.60029c-1.64629,-2.61688 -2.0313,-5.83002 -2.03893,-8.92166c-0.0135,-5.46467 1.01827,-10.87076 1.98945,-16.24846c0.80703,-4.46875 1.57531,-8.9482 2.06402,-13.46287c0.88853,-8.20825 0.8481,-16.49756 0.29214,-24.73502c-0.0931,-1.38017 -0.20023,-2.77381 0.0118,-4.14077c0.21204,-1.36695 0.77803,-2.72737 1.82595,-3.63036c0.9828,-0.84687 2.30304,-1.21795 3.5986,-1.28594c1.29556,-0.068 2.58744,0.14181 3.87096,0.3307c3.02315,0.4449 6.07241,0.77918 9.03106,1.54323c1.86541,0.48173 3.68372,1.13165 5.54531,1.62795c3.10947,0.82898 6.36227,1.22486 9.55911,0.8558c3.44127,-0.39728 6.78665,-1.67148 10.24974,-1.58654c1.42063,0.0348 2.83052,0.30037 4.1885,0.71908c1.38179,0.42605 2.74909,1.03446 3.76507,2.06337c0.76566,0.7754 1.29538,1.75352 1.7157,2.75891c0.62574,1.49674 1.03256,3.09742 1.06577,4.71936c0.0347,1.69374 -0.33552,3.39491 -0.10594,5.07338c0.18638,1.36264 0.7635,2.64802 1.50064,3.80912c0.73713,1.1611 1.634,2.2109 2.52251,3.26069c1.71726,2.02897 3.4393,4.09674 5.5931,5.65457c2.45218,1.77364 5.36188,2.81145 7.89508,4.46732c0.75511,0.49359 1.48596,1.05215 2.01814,1.78058c0.8972,1.22806 1.1387,2.90791 0.62379,4.33898l0.00002,0" id="path14296-3-7" clip-path="url(#clipPath419)"/>
     <path fill="#f5c021" filter="url(#filter14432-2)" d="m297.537862,269.215726c-0.687509,1.558311 -1.579759,3.011408 -2.641797,4.302383c-2.461219,2.99174 -5.78457,5.051427 -9.284922,6.374097c-5.762477,2.177458 -12.053384,2.469995 -17.710021,4.949158c-3.447375,1.510892 -6.54995,3.787353 -9.69142,5.938119c-2.539387,1.73856 -5.134756,3.412092 -7.923151,4.628808c-3.149437,1.374266 -6.498574,2.14479 -9.859072,2.684662c-2.138295,0.343517 -4.300535,0.596719 -6.459575,0.476951c-2.159051,-0.11978 -4.325212,-0.62521 -6.23065,-1.72636c-1.444705,-0.834887 -2.744573,-2.036877 -3.515736,-3.596346c-0.856726,-1.732497 -1.005347,-3.76596 -0.985733,-5.729195c0.052234,-5.232268 1.172198,-10.4078 1.138595,-15.64024c-0.02926,-4.554771 -0.931808,-9.051217 -1.191331,-13.597485c-0.499079,-8.742673 1.376938,-17.63825 -0.274188,-26.21466c-0.264312,-1.372948 -0.619628,-2.74417 -0.602358,-4.14625c0.009144,-0.701046 0.112926,-1.406072 0.360505,-2.054363c0.247579,-0.648303 0.643368,-1.238565 1.171101,-1.64822c0.444365,-0.344947 0.972029,-0.554833 1.512564,-0.649141c0.540534,-0.094271 1.094373,-0.07591 1.636347,0.008626c1.083949,0.168284 2.116647,0.594156 3.172273,0.90843c3.019652,0.898991 6.209242,0.88026 9.278053,1.558668c1.926217,0.425823 3.790998,1.123234 5.696984,1.644227c3.200642,0.874887 6.537949,1.248694 9.820553,0.864363c3.530069,-0.413303 6.980291,-1.694838 10.530076,-1.602415c1.455061,0.037832 2.900189,0.308138 4.30305,0.726271c1.403238,0.418244 2.806431,1.009886 3.868058,2.084c0.764991,0.773998 1.315961,1.763058 1.762623,2.7865c0.651837,1.493578 1.105551,3.115932 1.094922,4.766555c-0.005715,0.85867 -0.136002,1.709921 -0.213416,2.56455c-0.077379,0.854628 -0.100353,1.729762 0.104468,2.559559c0.205838,0.833728 0.633378,1.585607 1.123187,2.267847c0.489809,0.682253 1.045488,1.306268 1.552373,1.973857c1.419514,1.869567 2.434085,4.048663 3.540059,6.150027c1.105986,2.101363 2.345745,4.180791 4.092252,5.69469c2.377039,2.060463 5.461098,2.88379 8.11101,4.511973c0.775815,0.47668 1.527879,1.036147 2.07334,1.798389c0.43697,0.610632 0.728782,1.340994 0.840187,2.10283c0.11144,0.761835 0.042176,1.553579 -0.199334,2.279542l0.000103,0" id="path14296-3-1-9" clip-path="url(#clipPath426)"/>
     <path fill="url(#linearGradient18844)" filter="url(#filter17044)" d="m222.30911,230.88754c3.27611,-0.88704 6.0662,1.5972 8.44228,3.47233c1.53527,1.30928 3.75348,0.97992 5.63665,1.04213c3.12069,-0.11321 6.22535,0.52281 9.34708,0.13577c6.14462,-0.51932 12.16847,-2.02966 18.34236,-2.28984c2.94948,-0.18579 6.25992,-0.35725 8.80813,1.36517c1.03299,0.7155 2.54702,3.74139 3.56647,2.60489c-0.42031,-3.17821 -2.77748,-6.25589 -5.93906,-7.10224c-2.47492,-0.38942 -4.98985,0.29134 -7.48947,0.0711c-7.42294,-0.17706 -14.79344,-1.5554 -22.23396,-1.16015c-5.17644,0.0448 -10.34657,-0.19501 -15.51546,-0.39662c-2.03057,-0.41489 -2.74674,1.38901 -3.8489,2.08085" id="path16493" clip-path="url(#clipPath433)"/>
    </g>
    <g id="g411">
     <path fill="url(#linearGradient18854)" id="path4635-1" d="m92.57688,223.25692c1.59929,-0.66295 3.3982,-0.78361 5.10074,-0.46963c1.70253,0.31398 3.31141,1.04948 4.74342,2.02239c2.86402,1.94583 4.98821,4.77774 7.02263,7.57952c4.67189,6.43406 9.16868,13.00227 13.24488,19.8293c3.30635,5.53766 6.34352,11.25685 10.16415,16.45304c2.49398,3.3919 5.3066,6.53947 7.813,9.92221c2.50639,3.38273 4.72794,7.05586 5.83931,11.11662c1.44411,5.27653 0.88463,11.09291 -1.62666,15.95302c-1.76663,3.41896 -4.47646,6.35228 -7.77242,8.33898c-3.29595,1.9867 -7.17064,3.01444 -11.01635,2.87021c-6.11413,-0.2293 -11.69944,-3.28515 -17.38362,-5.54906c-11.58097,-4.6125 -24.15978,-6.0594 -36.09666,-9.65174c-3.66859,-1.10404 -7.27582,-2.4107 -10.96988,-3.42629c-1.64125,-0.45122 -3.30866,-0.8482 -4.85875,-1.55144c-1.55008,-0.70325 -2.99955,-1.7491 -3.86171,-3.21675c-0.66639,-1.13439 -0.94839,-2.47002 -0.93019,-3.78554c0.0182,-1.31552 0.32589,-2.61453 0.77382,-3.85158c0.89585,-2.47409 2.34326,-4.71374 3.32016,-7.15696c1.59511,-3.98935 1.88169,-8.38839 1.66657,-12.67942c-0.21511,-4.29103 -0.91078,-8.54478 -1.20454,-12.83115c-0.13118,-1.91406 -0.18066,-3.85256 0.18479,-5.73598c0.36545,-1.88343 1.17577,-3.72459 2.55771,-5.05541c1.27406,-1.22693 2.96492,-1.95531 4.69643,-2.31651c1.73151,-0.3612 3.51533,-0.37747 5.28367,-0.33762c1.76833,0.0399 3.54067,0.13425 5.30351,-0.0106c1.76284,-0.14488 3.53347,-0.54055 5.06911,-1.41828c1.45996,-0.83447 2.65433,-2.0745 3.64374,-3.43424c0.9894,-1.35974 1.78909,-2.84573 2.60891,-4.31396c0.81983,-1.46823 1.66834,-2.93151 2.74157,-4.22611c1.07324,-1.2946 2.38923,-2.42304 3.94266,-3.06698"/>
     <path fill="#d99a03" filter="url(#filter14148-8)" d="m95.10951,226.016667c1.45515,-0.58619 3.09423,-0.65064 4.62272,-0.30406c1.52849,0.34657 2.94957,1.09015 4.18836,2.047c2.47758,1.91371 4.19983,4.61379 5.85419,7.26861c3.97009,6.43306 7.8514,12.93381 11.5161,19.56716c2.7769,4.99324 5.4247,10.09253 8.83749,14.67892c2.26379,3.04154 4.84735,5.83139 7.15787,8.83675c2.31051,3.00536 4.37126,6.28214 5.3928,9.93347c1.31626,4.70582 0.78265,9.91001 -1.49541,14.23282c-1.63755,3.10576 -4.15203,5.74644 -7.18609,7.5126c-3.03406,1.76617 -6.57924,2.64923 -10.08655,2.48791c-5.59831,-0.25772 -10.71129,-3.05353 -15.98089,-4.95071c-10.10307,-3.66572 -21.05344,-4.15754 -31.41615,-7.02001c-3.71479,-1.00833 -7.33661,-2.35276 -11.06955,-3.29396c-1.65162,-0.41658 -3.33303,-0.75712 -4.90217,-1.4193c-1.56914,-0.66219 -3.04681,-1.68866 -3.89752,-3.16474c-0.63282,-1.09717 -0.88561,-2.38838 -0.84651,-3.65421c0.0391,-1.26584 0.35915,-2.51035 0.80992,-3.69386c0.90155,-2.36701 2.32025,-4.51029 3.22912,-6.87464c1.3787,-3.57425 1.54994,-7.50412 1.29397,-11.32617c-0.25597,-3.82205 -0.9211,-7.60949 -1.15326,-11.4336c-0.10374,-1.70896 -0.11933,-3.43899 0.22634,-5.11576c0.34564,-1.67677 1.07606,-3.30971 2.29486,-4.512c1.32089,-1.30904 3.14116,-2.02413 4.97727,-2.30427c1.83611,-0.28013 3.70601,-0.15808 5.55479,0.007c1.84877,0.16495 3.70503,0.37271 5.56113,0.26163c1.85609,-0.11109 3.7357,-0.56331 5.26886,-1.60694c1.39737,-0.94461 2.44584,-2.32407 3.24439,-3.79842c0.79856,-1.47435 1.3676,-3.05544 1.97644,-4.61656c0.60885,-1.56113 1.26672,-3.12189 2.2218,-4.50973c0.95509,-1.38785 2.23612,-2.60467 3.80568,-3.23473" id="path13596-6" clip-path="url(#clipPath401)"/>
     <path fill="#f5bd0c" filter="url(#filter14140-3)" id="path4635-2-4" d="m93.75305,222.383313c1.40907,-0.699414 3.07062,-0.842715 4.61642,-0.527173c1.54579,0.315532 2.97823,1.071051 4.19572,2.058215c2.43498,1.974309 3.98026,4.787189 5.41939,7.547381c3.30494,6.338785 6.3834,12.815557 10.33791,18.784846c2.86875,4.33036 6.17965,8.364111 9.08155,12.673121c3.93557,5.843882 7.13582,12.271375 8.45639,19.15663c0.88822,4.631053 0.85899,9.633447 -1.37244,13.805422c-1.46869,2.745914 -3.85002,4.998506 -6.66339,6.408078c-2.81337,1.409563 -6.0432,1.9808 -9.18889,1.703274c-4.95423,-0.43708 -9.4537,-2.872608 -14.11748,-4.571187c-8.27469,-3.013699 -17.21809,-3.734973 -25.73435,-6.008856c-3.59196,-0.959068 -7.10999,-2.195083 -10.7509,-2.955601c-1.60616,-0.335497 -3.24361,-0.580636 -4.77675,-1.158257c-1.53313,-0.577621 -2.98623,-1.537671 -3.76965,-2.954923c-0.55139,-0.997495 -0.73656,-2.165013 -0.65433,-3.297127c0.0822,-1.132124 0.42084,-2.234021 0.86462,-3.282014c0.88755,-2.095975 2.20087,-4.015937 2.89035,-6.18259c1.01321,-3.183937 0.59672,-6.635874 -0.1636,-9.887032c-0.76031,-3.251158 -1.85667,-6.443481 -2.19448,-9.762744c-0.15046,-1.478404 -0.14681,-2.985357 0.19136,-4.433533c0.33818,-1.448177 1.02687,-2.839847 2.10855,-3.878647c1.3932,-1.337981 3.34372,-2.003348 5.28315,-2.18923c1.93944,-0.185872 3.89217,0.067663 5.82027,0.344895c1.9281,0.277203 3.86824,0.579438 5.8148,0.490886c1.94656,-0.088581 3.92849,-0.599845 5.45316,-1.791569c1.50782,-1.178565 2.45577,-2.933505 2.99939,-4.749173c0.54362,-1.815659 0.71997,-3.714016 0.94267,-5.593862c0.2227,-1.879846 0.50044,-3.777152 1.22971,-5.528929c0.72928,-1.751777 1.96094,-3.366597 3.68085,-4.220301" clip-path="url(#clipPath391)"/>
     <path fill="url(#linearGradient18856)" filter="url(#filter14176-5)" id="path4792-8" d="m111.40702,238.20723c2.60622,4.71337 4.1958,10.12156 6.78125,14.875c2.3781,4.37223 5.08446,8.87379 7.5,12.90625c1.07545,1.79534 3.58329,4.5546 6.11895,8.83731c2.29771,3.88081 4.61826,9.29715 5.91658,11.1158c-0.74552,-2.12877 -2.27926,-7.84655 -4.10875,-11.92255c-1.70955,-3.80877 -3.69976,-5.98219 -4.92678,-8.03056c-2.41553,-4.03246 -5.01691,-7.65647 -7.5,-11.5c-3.42521,-5.30181 -6.03558,-11.23523 -9.78125,-16.28125z"/>
    </g>
   </g>
   <g transform="translate(12,0) " id="g526">
    <path opacity="0.35" fill="url(#radialGradient18846)" filter="url(#filter14897-2)" id="path29714-8-2" d="m254.4835,237.87796c-0.56258,-1.10201 -1.58692,-1.92585 -2.72873,-2.40251c-1.1418,-0.47667 -2.39692,-0.6289 -3.63419,-0.61936c-2.47454,0.0191 -4.93459,0.66357 -7.39999,0.45028c-2.0826,-0.18018 -4.05875,-0.96301 -6.08982,-1.45739c-2.09726,-0.51049 -4.32188,-0.70969 -6.40465,-0.14297c-2.22595,0.60568 -4.18942,2.09362 -5.41915,4.04541c-1.08426,1.72091 -1.59909,3.75274 -1.76111,5.78028c-0.16202,2.02754 0.013,4.06578 0.21815,6.08941c0.1484,1.46363 0.31354,2.93079 0.66764,4.35866c0.35411,1.42788 0.90422,2.82282 1.76608,4.01506c1.24071,1.71632 3.08337,2.9395 5.06938,3.67497c3.24183,1.20053 6.9338,1.13597 10.13167,-0.17718c5.65885,-2.45702 10.44922,-6.8639 13.36879,-12.29857c1.04539,-1.94596 1.8574,-4.01932 2.38189,-6.16513c0.20845,-0.85283 0.37215,-1.72236 0.37977,-2.60027c0.008,-0.8779 -0.14655,-1.76875 -0.54573,-2.55069"/>
    <path opacity="0.35" fill="url(#radialGradient18848)" filter="url(#filter14951-8)" id="path29714-8-3-0" d="m254.4835,234.722016c-0.56257,-0.796671 -1.58692,-1.392246 -2.72872,-1.736835c-1.14181,-0.344597 -2.39693,-0.454648 -3.6342,-0.447751c-2.47454,0.013808 -4.93459,0.479712 -7.39999,0.325519c-2.0826,-0.130257 -4.05874,-0.696184 -6.08982,-1.053584c-2.09726,-0.369046 -4.32188,-0.513053 -6.40465,-0.103357c-2.22595,0.437861 -4.18942,1.513531 -5.41915,2.924529c-1.08426,1.244089 -1.59909,2.712951 -1.76111,4.17871c-0.16202,1.46576 0.01297,2.939255 0.21815,4.402188c0.1484,1.058095 0.31354,2.118742 0.66765,3.150985c0.3541,1.032251 0.90421,2.040688 1.76607,2.902588c1.24071,1.240771 3.08337,2.125039 5.06938,2.656729c3.24183,0.867893 6.9338,0.821221 10.13167,-0.128088c5.65885,-1.776242 10.44922,-4.962087 13.36879,-8.890947c1.04539,-1.406784 1.8574,-2.905668 2.38189,-4.456928c0.20845,-0.616532 0.37215,-1.245138 0.37978,-1.879801c0.0076,-0.634656 -0.14656,-1.278674 -0.54574,-1.843958"/>
   </g>
   <g transform="translate(12,0) " id="g545">
    <path fill="#020204" id="path29714-5-4" d="m259.187347,227.565567c-0.40516,-1.10369 -1.11844,-2.08156 -1.99071,-2.86987c-0.87225,-0.78832 -1.90048,-1.39229 -2.98277,-1.85155c-2.16459,-0.91852 -4.52053,-1.26149 -6.83152,-1.69556c-2.17919,-0.40931 -4.34179,-0.90631 -6.52782,-1.27734c-2.27136,-0.38551 -4.6179,-0.63213 -6.8653,-0.1253c-1.96583,0.44333 -3.7845,1.45879 -5.27172,2.81864c-1.48723,1.35984 -2.64911,3.0564 -3.48499,4.89007c-1.47218,3.22952 -1.93451,6.86503 -1.65394,10.40316c0.20882,2.63325 0.87532,5.34594 2.60877,7.33912c1.40065,1.61052 3.38733,2.61526 5.43398,3.22092c3.52502,1.04316 7.36663,0.98822 10.86038,-0.1553c5.76689,-1.93113 10.87568,-5.77387 14.33034,-10.77903c1.13861,-1.64963 2.11217,-3.44809 2.5532,-5.4034c0.33597,-1.48955 0.34831,-3.08112 -0.1779,-4.51456"/>
    <path fill="url(#radialGradient18850)" filter="url(#filter14812-5)" clip-path="url(#clipPath533)" id="path29714-3-9-9" d="m235.218597,218.693747c-0.54933,0.0306 -1.08144,0.0909 -1.625,0.1875c-3.46951,0.61686 -6.64705,2.80857 -8.4375,5.84375c-1.26396,2.14267 -1.83985,4.67634 -1.65625,7.15625c0.0732,-1.74163 0.52946,-3.44685 1.375,-4.96875c1.43442,-2.58185 4.03238,-4.52979 6.9375,-5.0625c1.78976,-0.32819 3.63182,-0.13095 5.4375,0.0937c1.73256,0.2156 3.48115,0.44287 5.1875,0.8125c2.64101,0.57209 5.25428,1.45135 7.46875,3c0.51646,0.36118 0.99955,0.76857 1.40625,1.25c0.40669,0.48143 0.72188,1.03792 0.84375,1.65625c0.17824,0.90428 -0.0794,1.85295 -0.53125,2.65625c-0.45189,0.8033 -1.06491,1.50665 -1.71875,2.15625c-0.52923,0.5258 -1.09482,1.03417 -1.65625,1.53125c2.559,-0.49571 5.15199,-1.19766 7.28125,-2.6875c0.89975,-0.62955 1.71523,-1.38464 2.25,-2.34375c0.53477,-0.95912 0.76245,-2.1212 0.5,-3.1875c-0.17714,-0.71971 -0.57137,-1.3824 -1.0625,-1.9375c-0.49114,-0.55511 -1.0805,-1.01217 -1.6875,-1.4375c-2.67877,-1.87701 -5.81493,-3.07854 -9.0625,-3.46875c-2.08149,-0.38286 -4.18122,-0.70597 -6.28125,-0.96875c-1.64344,-0.20564 -3.32077,-0.37313 -4.96875,-0.28125l0,0.00005z"/>
    <path fill="url(#linearGradient18852)" filter="url(#filter14812-0-9)" clip-path="url(#clipPath538)" id="path29714-3-9-3-8" d="m235.218597,218.693751c-0.54933,0.0306 -1.08144,0.0909 -1.625,0.1875c-3.46951,0.61686 -6.64705,2.80857 -8.4375,5.84375c-1.26396,2.14267 -1.83985,4.67634 -1.65625,7.15625c0.0732,-1.74163 0.52946,-3.44685 1.375,-4.96875c1.43442,-2.58185 4.03238,-4.52979 6.9375,-5.0625c1.78976,-0.32819 3.63182,-0.13095 5.4375,0.0937c1.73256,0.2156 3.48115,0.44287 5.1875,0.8125c2.64101,0.57209 5.25428,1.45135 7.46875,3c0.51646,0.36118 0.99955,0.76857 1.40625,1.25c0.40669,0.48143 0.72188,1.03792 0.84375,1.65625c0.17824,0.90428 -0.0794,1.85295 -0.53125,2.65625c-0.45189,0.8033 -1.06491,1.50665 -1.71875,2.15625c-0.52923,0.5258 -1.09482,1.03417 -1.65625,1.53125c2.559,-0.49571 5.15199,-1.19766 7.28125,-2.6875c0.89975,-0.62955 1.71523,-1.38464 2.25,-2.34375c0.53477,-0.95912 0.76245,-2.1212 0.5,-3.1875c-0.17714,-0.71971 -0.57137,-1.3824 -1.0625,-1.9375c-0.49114,-0.55511 -1.0805,-1.01217 -1.6875,-1.4375c-2.67877,-1.87701 -5.81493,-3.07854 -9.0625,-3.46875c-2.08149,-0.38286 -4.18122,-0.70597 -6.28125,-0.96875c-1.64344,-0.20564 -3.32077,-0.37313 -4.96875,-0.28125l0,0.00005z"/>
   </g>
   <g id="g777">
    <g id="g669">
     <g id="g643">
      <path fill="url(#radialGradient18806)" d="m133.232287,60.599997c-1.78096,0.097 -3.48461,0.91899 -4.78785,2.1367c-1.30324,1.21771 -2.22137,2.81176 -2.78618,4.50357c-1.12962,3.38363 -0.87548,7.05177 -0.6187,10.60973c0.23251,3.22162 0.47041,6.50533 1.67679,9.50158c0.60319,1.49813 1.45024,2.91021 2.58034,4.06395c1.13009,1.15374 2.55173,2.04189 4.11829,2.43447c1.46884,0.36809 3.03816,0.29183 4.48279,-0.16209c1.44462,-0.45392 2.76391,-1.27887 3.84623,-2.33791c1.57904,-1.54507 2.64326,-3.5662 3.25345,-5.68947c0.61019,-2.12328 0.78416,-4.35155 0.7524,-6.56053c-0.03974,-2.76435 -0.40091,-5.53851 -1.26575,-8.16439c-0.86485,-2.62588 -2.24575,-5.10327 -4.1728,-7.08561c-0.93331,-0.96009 -1.99777,-1.80513 -3.19859,-2.39747c-1.20081,-0.59233 -2.54343,-0.92535 -3.88042,-0.85253" id="path28795-9-5"/>
      <g id="g605">
       <path fill="#020204" d="m128.938741,75.349427c-0.37211,2.24574 -0.38563,4.60199 0.3864,6.74344c0.50979,1.41404 1.35041,2.69692 2.37218,3.79935c0.66903,0.72184 1.42824,1.37779 2.31576,1.80318c0.88752,0.42539 1.91578,0.60638 2.87035,0.36671c0.88113,-0.22123 1.65156,-0.78859 2.22013,-1.49715c0.56856,-0.70857 0.9476,-1.55295 1.2177,-2.42034c0.7974,-2.56075 0.66926,-5.36165 -0.12241,-7.92418c-0.5768,-1.86701 -1.53208,-3.66794 -3.02664,-4.9268c-0.71307,-0.60061 -1.54773,-1.07115 -2.45479,-1.28664c-0.90707,-0.2155 -1.88874,-0.16505 -2.73754,0.22063c-0.9423,0.42817 -1.67159,1.24304 -2.14907,2.16134c-0.47749,0.91829 -0.72288,1.93936 -0.89207,2.96046" id="path29453-9"/>
       <path fill="url(#linearGradient18820)" filter="url(#filter29493-2)" id="path29465-8" d="m133.68735,73.725c0.24185,0.6337 1.05418,0.86381 1.5,1.375c0.43302,0.49651 0.88735,1.01055 1.125,1.625c0.4549,1.17616 -0.4488,2.91931 0.5,3.75c0.29782,0.26075 0.89472,0.26639 1.1875,0c1.14539,-1.04215 0.89094,-3.14433 0.4375,-4.625c-0.4115,-1.34371 -1.42747,-2.61637 -2.67923,-3.25512c-0.57882,-0.29536 -1.45077,-0.54089 -1.94577,-0.11988c-0.31898,0.2713 -0.27431,0.85878 -0.125,1.25z"/>
      </g>
      <path fill="url(#radialGradient18832)" id="path29551-9" d="m129.39192,67.764987c2.68537,-1.59933 5.95507,-1.97034 9.0667,-1.67565c3.11163,0.29468 6.12543,1.20847 9.1413,2.02921c2.21163,0.60188 4.45158,1.16149 6.52533,2.13777c2.07374,0.97627 3.99988,2.41568 5.14193,4.40296c0.18319,0.31877 0.34526,0.6497 0.53925,0.96201c0.194,0.31232 0.42311,0.60867 0.71646,0.83031c0.29335,0.22164 0.65699,0.3643 1.02411,0.34424c0.18355,-0.01 0.36561,-0.0609 0.52417,-0.15388c0.15857,-0.093 0.29295,-0.22871 0.37799,-0.39169c0.09778,-0.18739 0.12808,-0.40446 0.11714,-0.61554c-0.01094,-0.21108 -0.06122,-0.41805 -0.11714,-0.62189c-0.7552,-2.75296 -2.53499,-5.08832 -3.88909,-7.6014c-0.8126,-1.5081 -1.47696,-3.09273 -2.2981,-4.5962c-2.81829,-5.16019 -7.4436,-9.21564 -12.7014,-11.84733c-5.25781,-2.6317 -11.12745,-3.89613 -16.99708,-4.23934c-6.80118,-0.39768 -13.61976,0.40945 -20.32932,1.59099c-2.9086,0.5122 -5.86079,1.11511 -8.43569,2.56156c-1.28744,0.72322 -2.46745,1.65662 -3.38847,2.81087c-0.92102,1.15425 -1.57648,2.53523 -1.78765,3.99673c-0.20352,1.40855 0.0088,2.86057 0.5013,4.19582c0.49249,1.33524 1.25825,2.5585 2.15654,3.66236c1.79658,2.20771 4.10066,3.93361 6.22243,5.83092c2.12131,1.8969 4.09001,3.99204 6.46295,5.56282c1.18647,0.78539 2.47266,1.43499 3.84338,1.81666c1.37072,0.38166 2.82992,0.48917 4.22383,0.20358c1.44499,-0.29606 2.78269,-1.005 3.95362,-1.90197c1.17094,-0.89697 2.18613,-1.98006 3.14842,-3.09793c1.92458,-2.23575 3.72254,-4.68648 6.25709,-6.19599" clip-path="url(#clipPath631)"/>
      <path fill="url(#linearGradient18818)" filter="url(#filter29447-1)" d="m140.56235,58.615797c2.5037,2.34533 4.36502,5.2397 5.625,8.30939c-0.55067,-3.38469 -1.42341,-6.10373 -3.625,-8.30939c-1.35129,-1.26581 -2.88639,-2.37775 -4.625,-3.1587c-1.52128,-0.68334 -3.2136,-1.10788 -4.18083,-1.12552c-0.96723,-0.0176 -1.2022,0.004 -1.40094,0.0134c-0.19874,0.009 -0.35739,0.0162 0.27185,0.0877c0.62924,0.0715 2.03368,0.45118 3.5411,1.12827c1.50743,0.6771 3.04253,1.78904 4.39382,3.05485z" id="path28795-9-2-2"/>
     </g>
     <g id="g652">
      <path fill="url(#radialGradient18808)" d="m164.749847,60.599997c-2.78042,1.91023 -5.11057,4.57487 -6.25,7.75c-1.43603,4.00163 -0.88584,8.48071 0.5,12.5c1.41949,4.11688 3.79379,8.04098 7.37932,10.51234c1.79277,1.23567 3.86809,2.08301 6.0304,2.33859c2.16231,0.25558 4.40928,-0.0949 6.34028,-1.10093c2.35312,-1.22596 4.14782,-3.37278 5.26217,-5.78076c1.11436,-2.40798 1.5888,-5.0701 1.73783,-7.71924c0.18989,-3.37546 -0.14047,-6.80646 -1.25,-10c-1.20527,-3.46909 -3.39005,-6.67055 -6.47275,-8.6666c-1.54136,-0.99803 -3.29195,-1.68356 -5.11089,-1.93515c-1.81893,-0.25158 -3.70476,-0.0633 -5.41636,0.60175c-0.97547,0.37901 -1.88744,0.9074 -2.75,1.5" id="path28795-3"/>
      <g id="g613">
       <path fill="#020204" d="m171.161367,68.994767c-1.04548,0.0749 -2.06437,0.4318 -2.95135,0.99028c-0.88699,0.55848 -1.64327,1.31521 -2.23701,2.17899c-1.18748,1.72757 -1.70894,3.84675 -1.793,5.94139c-0.0631,1.5723 0.11098,3.16512 0.63245,4.64977c0.52147,1.48465 1.40089,2.85877 2.61276,3.86251c1.24011,1.02713 2.81647,1.64364 4.42485,1.72094c1.60838,0.0773 3.23948,-0.38665 4.56105,-1.3066c1.05288,-0.73292 1.9021,-1.74168 2.50666,-2.87315c0.60455,-1.13148 0.96879,-2.38348 1.1353,-3.65549c0.29411,-2.24678 -0.0385,-4.59295 -1.07692,-6.60695c-1.03841,-2.01401 -2.80051,-3.67269 -4.92674,-4.45606c-0.92093,-0.3393 -1.90911,-0.51576 -2.88805,-0.44563" id="path28879-6"/>
       <path fill="#141413" filter="url(#filter28927-8)" id="path28891-5" d="m173.6561,75.85c-0.86591,0.34162 -2.23657,0.12677 -2.61622,0.9767c-0.22493,0.50357 0.0927,1.33252 0.60343,1.54061c1.03244,0.42063 2.63193,-0.34111 3.04876,-1.3751c0.18104,-0.4491 -0.0934,-1.16101 -0.53974,-1.34865c-0.16515,-0.0694 -0.32958,0.14069 -0.49623,0.20644z"/>
       <path fill="url(#linearGradient18812)" filter="url(#filter28949-8)" id="path28887-6" d="m177.62485,78.1c1.16113,-1.16113 -0.82613,-4.23951 -2.375,-5.5c-1.12184,-0.91296 -4.39063,-1.86851 -4.25,-0.875c0.14063,0.99351 1.60988,2.26647 2.59467,3.23744c1.21236,1.19533 3.47886,3.68903 4.03033,3.13756z"/>
      </g>
      <path fill="url(#linearGradient18814)" d="m154.24984,70.724997c2.38375,-1.98014 5.16091,-3.48474 8.12154,-4.40008c6.08556,-1.88147 12.99968,-1.13706 18.37846,2.27508c1.85708,1.17808 3.51244,2.64192 5.23935,4.00367c1.72691,1.36176 3.56115,2.64122 5.63565,3.37133c1.12086,0.39448 2.31818,0.62345 3.5,0.5c1.06768,-0.11153 2.09928,-0.5118 2.98444,-1.11915c0.88515,-0.60736 1.62476,-1.4185 2.18064,-2.33686c1.11176,-1.8367 1.47001,-4.06457 1.27839,-6.20298c-0.38324,-4.27682 -2.79556,-8.05341 -4.81847,-11.84101c-0.63342,-1.18598 -1.23642,-2.39333 -2,-3.5c-2.34327,-3.39616 -6.07312,-5.63562 -9.98498,-6.94794c-3.91185,-1.31233 -8.04626,-1.78639 -12.14002,-2.30206c-1.82574,-0.22998 -3.67303,-0.46998 -5.5,-0.25c-2.0998,0.25283 -4.07598,1.101 -6.125,1.625c-0.97265,0.24874 -1.96366,0.42478 -2.92803,0.70391c-0.96436,0.27912 -1.91296,0.669 -2.69697,1.29609c-1.14482,0.91567 -1.86506,2.29088 -2.1765,3.72338c-0.31145,1.4325 -0.24052,2.92444 -0.01161,4.37242c0.4578,2.89597 1.54088,5.72407 1.43811,8.6542c-0.07058,2.01227 -0.70229,3.98797 -0.625,6c0.02266,0.58987 0.10659,1.17738 0.25,1.75" id="path28972-5" clip-path="url(#clipPath622)"/>
      <path fill="url(#linearGradient18816)" filter="url(#filter29350-1)" d="m174.40609,52.362817c-0.47695,0.59985 -0.90798,1.25231 -1.25,1.96875c2.14641,0.46247 4.19906,1.34575 6.03125,2.5625c3.54507,2.35427 6.237,5.7965 8.12501,9.625c0.44076,-0.48807 0.84202,-1.01184 1.1875,-1.59375c-1.89751,-3.9878 -4.64382,-7.5949 -8.3125,-10.03125c-1.76231,-1.17035 -3.72465,-2.05369 -5.78125,-2.53125l-0.00001,0z" id="path28795-92-2"/>
     </g>
    </g>
    <g id="g735">
     <path fill="url(#radialGradient18810)" id="path28849-2" d="m141.600467,84.099997c1.76737,-1.98662 2.97619,-4.41053 4.67414,-6.45679c0.84898,-1.02314 1.82842,-1.95533 2.98168,-2.61681c1.15326,-0.66147 2.49198,-1.0411 3.81652,-0.9264c1.47449,0.12769 2.85454,0.86228 3.93407,1.87472c1.07954,1.01244 1.87977,2.29027 2.51865,3.62528c0.61174,1.27831 1.09776,2.64027 1.97912,3.75c0.94033,1.18398 2.25953,1.99218 3.45109,2.92288c0.59578,0.46535 1.16748,0.96911 1.6384,1.5605c0.47092,0.59139 0.83961,1.27595 0.99099,2.01662c0.15372,0.75214 0.07715,1.54506 -0.18518,2.26653c-0.26233,0.72148 -0.7067,1.37174 -1.25963,1.90429c-1.10586,1.0651 -2.61358,1.63957 -4.13381,1.85466c-3.04046,0.43016 -6.11466,-0.47583 -9.18424,-0.39142c-3.10689,0.0854 -6.14156,1.18366 -9.24754,1.07007c-1.553,-0.0568 -3.12807,-0.43624 -4.40426,-1.32301c-0.63809,-0.44339 -1.194,-1.01055 -1.59583,-1.6756c-0.40182,-0.66505 -0.64669,-1.42894 -0.67286,-2.20552c-0.02497,-0.74092 0.14804,-1.48088 0.44407,-2.16055c0.29604,-0.67967 0.71269,-1.30175 1.18213,-1.87552c0.93888,-1.14753 2.08699,-2.10617 3.07249,-3.21393"/>
     <g id="g712">
      <path fill="url(#radialGradient18822)" id="path28461-2" d="m124.75152,103.269377c0.06146,0.29539 0.17251,0.58039 0.32709,0.8395c0.26569,0.44533 0.65394,0.80631 1.07326,1.1114c0.41932,0.30509 0.8728,0.55947 1.31183,0.83545c2.33364,1.46695 4.23536,3.52905 5.92473,5.70709c2.26654,2.92217 4.27191,6.16491 7.29931,8.28886c2.13778,1.49982 4.69571,2.35501 7.29406,2.61606c3.05132,0.30656 6.13988,-0.18595 9.08171,-1.05205c2.72638,-0.80267 5.3631,-1.92956 7.78216,-3.4214c4.59851,-2.83591 8.43925,-6.99271 13.51002,-8.85709c1.10702,-0.40702 2.25922,-0.69819 3.3265,-1.20026c1.06727,-0.50207 2.07136,-1.25403 2.5811,-2.31766c0.48998,-1.02241 0.47097,-2.20249 0.63053,-3.32496c0.1707,-1.20084 0.55374,-2.36184 0.76385,-3.55642c0.2101,-1.19458 0.23517,-2.47233 -0.28138,-3.56975c-0.42775,-0.90878 -1.20535,-1.62786 -2.09983,-2.08475c-0.89448,-0.4569 -1.90108,-0.66447 -2.90429,-0.71372c-2.00641,-0.0985 -3.98758,0.41519 -5.98809,0.59785c-2.64953,0.24193 -5.31787,-0.0982 -7.97725,-0.019c-3.3083,0.0986 -6.5684,0.84468 -9.87428,1.00503c-3.77152,0.18294 -7.53468,-0.39851 -11.30754,-0.55139c-1.63407,-0.0662 -3.27996,-0.0512 -4.89182,0.22531c-1.61186,0.27654 -3.19523,0.82363 -4.541,1.75286c-1.31144,0.90553 -2.35592,2.14022 -3.56019,3.18405c-0.60214,0.52192 -1.24949,0.99929 -1.96627,1.3474c-0.71679,0.34812 -1.50749,0.564 -2.30416,0.54708c-0.4096,-0.009 -0.83086,-0.0769 -1.2213,0.0472c-0.24391,0.0775 -0.46048,0.22705 -0.64353,0.40593c-0.18306,0.17888 -0.33479,0.38705 -0.4778,0.59931c-0.33254,0.49356 -0.62307,1.01541 -0.86742,1.55807"/>
      <path fill="#d9b30d" filter="url(#filter28502-8)" id="path28487-2" d="m139.55657,107.335237c-0.38646,1.59605 -0.15199,3.33408 0.64359,4.77067c0.79558,1.43659 2.14439,2.5575 3.70231,3.07676c1.97776,0.65919 4.20658,0.33635 6.05477,-0.62813c1.07136,-0.55909 2.05117,-1.34588 2.66938,-2.38425c0.3091,-0.51918 0.52398,-1.09707 0.60452,-1.69591c0.08054,-0.59884 0.02471,-1.2185 -0.18489,-1.78522c-0.22971,-0.62112 -0.64026,-1.16849 -1.14605,-1.59596c-0.50579,-0.42748 -1.10467,-0.7378 -1.73344,-0.94568c-1.25754,-0.41575 -2.61093,-0.42405 -3.93389,-0.36051c-2.00521,0.0963 -4.00292,0.34837 -5.9692,0.75318"/>
      <path fill="#604405" filter="url(#filter15145-6)" d="m133.06614,94.917737c-1.33896,0.79147 -2.62858,1.66369 -3.8975,2.56317c-0.65671,0.46551 -1.33417,0.96895 -1.68056,1.69557c-0.2455,0.51498 -0.30177,1.09903 -0.30959,1.66948c-0.0078,0.57045 0.02884,1.14399 -0.04618,1.70954c-0.05124,0.38625 -0.15432,0.76619 -0.17153,1.15544c-0.0086,0.19463 0.0047,0.39145 0.05602,0.57938c0.05134,0.18793 0.1419,0.36704 0.27548,0.50885c0.17255,0.18318 0.40793,0.29591 0.64865,0.36931c0.24072,0.0734 0.49064,0.1112 0.73562,0.16878c1.17466,0.27611 2.19692,0.99676 3.09412,1.80366c0.89721,0.8069 1.70289,1.71487 2.63887,2.47645c2.53725,2.06449 5.89048,2.91872 9.16109,2.97254c3.27061,0.0538 6.5042,-0.63066 9.6953,-1.34946c2.50632,-0.56456 5.01498,-1.15472 7.42544,-2.04356c3.70275,-1.36537 7.14075,-3.43167 10.11819,-6.02193c1.34997,-1.17442 2.61722,-2.46364 4.13251,-3.41525c1.34092,-0.84211 2.84262,-1.39796 4.20633,-2.20265c0.12193,-0.072 0.24321,-0.14621 0.35213,-0.23665c0.10893,-0.0905 0.20574,-0.1981 0.26892,-0.3248c0.10917,-0.21894 0.10937,-0.48123 0.0389,-0.71552c-0.0704,-0.23429 -0.20633,-0.44389 -0.36,-0.63425c-0.16999,-0.21058 -0.36336,-0.40158 -0.56895,-0.57756c-1.42438,-1.21921 -3.35676,-1.66245 -5.22581,-1.81067c-1.86905,-0.14822 -3.76067,-0.0434 -5.60996,-0.35238c-1.73865,-0.29048 -3.39327,-0.93881 -5.07175,-1.4773c-1.76194,-0.56527 -3.56278,-1.01251 -5.38903,-1.31044c-4.29476,-0.70063 -8.71732,-0.56641 -12.97748,0.32063c-4.05769,0.84488 -7.97129,2.37056 -11.53927,4.47962" id="path27476-7-8"/>
      <path fill="url(#linearGradient18824)" d="m132.63925,90.391897c-1.92939,1.2986 -3.66613,2.88291 -5.13602,4.68523c-0.8407,1.03083 -1.60373,2.15084 -2.02709,3.41185c-0.333,0.99185 -0.44648,2.04153 -0.65633,3.06652c-0.07861,0.38398 -0.17139,0.76923 -0.16974,1.16118c0.00082,0.19597 0.02568,0.39281 0.08646,0.57912c0.06079,0.18631 0.15831,0.36204 0.29407,0.50337c0.22468,0.23391 0.54041,0.36101 0.8581,0.42632c0.31769,0.0653 0.6438,0.0751 0.96606,0.11177c1.45463,0.16535 2.79446,0.87199 4.00033,1.70216c1.20587,0.83017 2.31711,1.79543 3.55444,2.57795c2.73389,1.72899 5.99455,2.49829 9.2269,2.62285c3.23235,0.12456 6.45735,-0.36641 9.62949,-0.99977c2.5209,-0.50334 5.03392,-1.10072 7.42544,-2.04356c3.66241,-1.44389 6.9635,-3.66693 10.11819,-6.02193c1.43301,-1.06976 2.84598,-2.17318 4.13251,-3.41525c0.43668,-0.42159 0.85916,-0.85947 1.32756,-1.24551c0.46841,-0.38603 0.98816,-0.72177 1.56598,-0.90766c0.88076,-0.28336 1.83562,-0.20203 2.74819,-0.0495c0.68732,0.11488 1.376,0.26902 2.07229,0.24128c0.34815,-0.0139 0.69661,-0.0742 1.02006,-0.2037c0.32345,-0.12954 0.62155,-0.33028 0.8433,-0.59903c0.29139,-0.35317 0.43996,-0.81445 0.4416,-1.2723c0.002,-0.45786 -0.1387,-0.91095 -0.37105,-1.30548c-0.4647,-0.78905 -1.26825,-1.32311 -2.10504,-1.69503c-1.14614,-0.50941 -2.3863,-0.76136 -3.60551,-1.05573c-3.74529,-0.90427 -7.38475,-2.24056 -10.83577,-3.95385c-1.7156,-0.85173 -3.38355,-1.79555 -5.07175,-2.70037c-1.73557,-0.93021 -3.50457,-1.82415 -5.38903,-2.39536c-4.21332,-1.27713 -8.81853,-0.85829 -12.97748,0.58609c-4.61991,1.60447 -8.79745,4.46312 -11.96616,8.18832l0,0.00002" id="path27476-4"/>
      <path fill="#f6da4a" filter="url(#filter14963-7)" d="m162.23837,91.317707c-0.2265,-0.28623 -0.55114,-0.48799 -0.90129,-0.59103c-0.35016,-0.10304 -0.72467,-0.1104 -1.08444,-0.0488c-0.71952,0.12322 -1.36449,0.51049 -1.96574,0.9245c-1.70855,1.17648 -3.21886,2.62822 -4.53731,4.22977c-1.74522,2.11996 -3.18499,4.57171 -3.66755,7.27489c-0.08131,0.45547 -0.13511,0.92132 -0.07821,1.38049c0.0569,0.45916 0.23279,0.91479 0.55871,1.24319c0.28617,0.28835 0.67572,0.46425 1.07784,0.52203c0.40212,0.0578 0.81591,0.002 1.20076,-0.12836c0.76971,-0.26019 1.40899,-0.79942 2.01444,-1.34126c3.33597,-2.98548 6.35252,-6.56776 7.55957,-10.87877c0.12113,-0.43261 0.22401,-0.87566 0.22123,-1.3249c-0.0028,-0.44924 -0.11924,-0.90947 -0.39801,-1.26176" id="path28357-7"/>
      <g id="g681">
       <path opacity="0.8" fill="url(#radialGradient18826)" filter="url(#filter15177-1)" id="path28396-7" d="m154.25114,85.12767c0.23129,0.7424 1.42778,0.61935 2.11906,0.97542c0.60659,0.31244 1.09447,0.99723 1.77651,1.01692c0.65093,0.0188 1.66398,-0.22542 1.74866,-0.87109c0.11187,-0.85303 -1.13379,-1.39511 -1.93536,-1.70762c-1.03148,-0.40216 -2.35301,-0.6062 -3.3206,-0.0682c-0.22173,0.12328 -0.46373,0.41238 -0.38827,0.65458l0,-0.00001z"/>
       <path opacity="0.8" fill="url(#radialGradient18828)" filter="url(#filter15173-0)" id="path28398-7" d="m142.82694,84.70783c-0.88816,-0.28854 -2.35748,1.27746 -1.87806,2.07886c0.13167,0.22009 0.53491,0.49916 0.80641,0.34992c0.40925,-0.22497 0.74404,-1.02958 1.18746,-1.34496c0.29608,-0.21058 0.22974,-0.97156 -0.11581,-1.08382z"/>
      </g>
      <path fill="url(#linearGradient18830)" filter="url(#filter28584-4)" clip-path="url(#clipPath697)" id="path28570-8" d="m185.237939,96.416362a2.857471,3.534407 0 0 1 -3.253678,3.534392a2.857471,3.534407 0 0 1 -2.461275,-3.534392a2.857471,3.534407 0 0 1 3.253668,-3.534407a2.857471,3.534407 0 0 1 2.461284,3.534407z"/>
     </g>
    </g>
   </g>
  </g>
 </g>
</svg>