<svg width="377.5" height="377" xmlns="http://www.w3.org/2000/svg">
 <style type="text/css">.st0{fill:#6DB33F;}
	.st1{fill:#FFFFFF;}</style>

 <g>
  <title>background</title>
  <rect fill="none" id="canvas_background" height="379" width="379.5" y="-1" x="-1"/>
 </g>
 <g>
  <title>Layer 1</title>
  <path id="svg_1" d="m95.5,136.7c-1.3,3.2 -3.1,6.3 -5.2,9.1c-18.6,-19.3 -49.3,-19.8 -68.5,-1.2s-19.8,49.3 -1.2,68.5c0.6,0.7 1.3,1.3 2,1.9l1.8,1.6c20.4,17.2 51,14.6 68.2,-5.8c6.6,-7.8 10.6,-17.6 11.3,-27.8c1.4,-12.1 -2.3,-27.7 -8.4,-46.3zm-65.9,78.8c-1.4,1.8 -4,2 -5.8,0.6s-2,-4 -0.6,-5.8s4,-2 5.8,-0.6c1.7,1.4 2,4 0.6,5.8zm65.6,-14.5c-11.9,15.9 -37.5,10.5 -53.8,11.3c0,0 -2.9,0.2 -5.8,0.6c0,0 1.1,-0.5 2.5,-1c11.5,-4 16.9,-4.8 23.9,-8.4c13.1,-6.7 26.2,-21.4 28.8,-36.6c-5,14.6 -20.2,27.2 -34,32.3c-9.5,3.5 -26.6,6.9 -26.6,6.9l-0.7,-0.4c-11.6,-5.7 -12,-30.9 9.2,-39c9.3,-3.6 18.1,-1.6 28.2,-4c10.7,-2.5 23.1,-10.5 28.1,-21c5.6,16.9 12.4,43.1 0.2,59.3z" class="st0"/>
  <path id="svg_2" d="m131.4,198.6c-1.3,-0.8 -2.1,-2.2 -2,-3.7c0,-2.4 1.9,-4.4 4.3,-4.4c0,0 0,0 0.1,0c0.8,0 1.6,0.2 2.3,0.6c4,2.8 8.7,4.3 13.5,4.5c4.6,0 7.3,-2 7.3,-5.1l0,-0.2c0,-3.7 -5,-4.9 -10.5,-6.6c-6.9,-2 -14.7,-4.8 -14.7,-13.8l0,-0.2c0,-8.9 7.4,-14.3 16.7,-14.3c5.2,0.1 10.2,1.4 14.8,3.8c1.6,0.8 2.6,2.3 2.6,4.1c0,2.4 -2,4.4 -4.4,4.4l-0.1,0c-0.7,0 -1.4,-0.2 -2.1,-0.5c-3.4,-1.9 -7.1,-3 -11,-3.2c-4.2,0 -6.6,2 -6.6,4.6l0,0.2c0,3.5 5.1,4.9 10.6,6.7c6.9,2.1 14.6,5.3 14.6,13.7l0,0.2c0,9.9 -7.7,14.8 -17.4,14.8c-6.4,-0.1 -12.7,-2 -18,-5.6z" class="st0"/>
  <path id="svg_3" d="m170.8,160.9c-0.1,-2.9 2.3,-5.3 5.2,-5.4l0.1,0c3,0 5.4,2.4 5.4,5.4l0,0l0,3.2c3.5,-4.9 8.4,-8.8 16,-8.8c11,0 21.8,8.7 21.8,24.4l0,0.2c0,15.6 -10.7,24.4 -21.8,24.4c-7.8,0 -12.7,-3.9 -16,-8.3l0,16.6c0,3 -2.4,5.4 -5.4,5.4l0,0c-2.9,0 -5.3,-2.4 -5.3,-5.3l0,-0.1l0,-51.7zm37.7,19l0,-0.2c0,-9.1 -6.1,-15 -13.4,-15s-13.7,6.1 -13.7,15l0,0.2c0,9 6.4,15 13.7,15s13.4,-5.7 13.4,-15z" class="st0"/>
  <path id="svg_4" d="m223.5,160.9c-0.1,-2.9 2.3,-5.3 5.2,-5.4l0.1,0c3,0 5.4,2.4 5.4,5.4l0,0l0,2.6c0.5,-4 7.1,-8 11.8,-8c2.7,-0.2 5.1,1.8 5.3,4.5c0,0.3 0,0.5 0,0.8c0,2.6 -1.8,4.8 -4.3,5.2c-7.7,1.3 -12.9,8 -12.9,17.3l0,15.5c0,3 -2.4,5.3 -5.4,5.3c-2.9,0 -5.3,-2.3 -5.3,-5.2c0,0 0,0 0,-0.1l0.1,-37.9l0,0z" class="st0"/>
  <path id="svg_5" d="m255.6,161c-0.1,-2.9 2.3,-5.3 5.2,-5.4l0.1,0c3,0 5.4,2.4 5.4,5.4l0,0l0,37.9c0,3 -2.4,5.3 -5.4,5.3s-5.3,-2.4 -5.3,-5.3l0,-37.9z" class="st0"/>
  <path id="svg_6" d="m271.8,161c-0.1,-2.9 2.3,-5.3 5.2,-5.4l0.1,0c3,0 5.4,2.4 5.4,5.4l0,0l0,2.2c3.2,-5 8.8,-7.9 14.7,-7.7c10.6,0 16.7,7.1 16.7,18l0,25.3c0.1,2.9 -2.2,5.2 -5.1,5.3c-0.1,0 -0.1,0 -0.2,0c-2.9,0.1 -5.3,-2.3 -5.4,-5.2l0,-0.1l0,-22c0,-7.3 -3.6,-11.5 -10.1,-11.5c-6.2,0 -10.6,4.4 -10.6,11.7l0,21.9c0,3 -2.4,5.4 -5.4,5.4s-5.4,-2.4 -5.4,-5.4l0.1,-37.9l0,0z" class="st0"/>
  <path id="svg_7" d="m361.3,155.4c-3,0 -5.4,2.4 -5.4,5.4l0,0l0,3.2c-3.5,-4.9 -8.4,-8.8 -16,-8.8c-11,0 -21.8,8.7 -21.8,24.4l0,0.2c0,15.6 10.7,24.4 21.8,24.4c7.8,0 12.7,-3.9 16,-8.2c-0.5,8.5 -5.7,12.9 -14.8,12.9c-5,0 -10,-1.2 -14.4,-3.7c-0.6,-0.3 -1.2,-0.4 -1.9,-0.4c-2.5,0 -4.5,1.9 -4.6,4.4c0,1.9 1.2,3.7 3,4.3c5.7,2.8 11.9,4.2 18.2,4.2c8.5,0 15.1,-2 19.3,-6.3c3.9,-3.9 6,-9.8 6,-17.7l0,-32.8c0.1,-3 -2.3,-5.4 -5.3,-5.5c0,0 -0.1,0 -0.1,0zm-18.9,39.5c-7.4,0 -13.4,-5.8 -13.4,-15.1l0,-0.2c0,-9.1 6.1,-15 13.4,-15s13.7,6.1 13.7,15l0,0.2c0.1,9 -6.3,15.1 -13.7,15.1z" class="st0"/>
  <path id="svg_8" d="m266.4,142.6c0,3 -2.4,5.4 -5.4,5.4s-5.4,-2.4 -5.4,-5.4s2.4,-5.4 5.4,-5.4l0,0c2.9,-0.1 5.3,2.3 5.4,5.2c0,0.1 0,0.1 0,0.2z" class="st0"/>
  <path id="svg_9" d="m366,142.7c-3,0 -5.5,-2.5 -5.5,-5.5s2.5,-5.5 5.5,-5.5s5.5,2.5 5.5,5.5s-2.5,5.5 -5.5,5.5zm0,-10.2c-2.6,0 -4.7,2.1 -4.7,4.7s2.1,4.7 4.7,4.7s4.7,-2.1 4.7,-4.7s-2,-4.7 -4.6,-4.7l-0.1,0zm1.5,7.8l-1.6,-2.5l-1.1,0l0,2.5l-0.9,0l0,-6.3l2.6,0c1.1,-0.1 2,0.8 2.1,1.9l0,0c0,0.9 -0.7,1.7 -1.6,1.9l1.7,2.5l-1.2,0zm-1.1,-5.5l-1.6,0l0,2.2l1.7,0c0.6,0 1.1,-0.5 1.1,-1.1s-0.5,-1.1 -1.2,-1.1l0,0z" class="st0"/>
  <path id="svg_10" d="m92.6,210.8c6.6,-7.8 10.6,-17.6 11.3,-27.8" class="st0"/>
  <path id="svg_11" d="m95.2,201c-11.9,15.9 -37.5,10.5 -53.8,11.3c0,0 -2.9,0.2 -5.8,0.6c0,0 1.1,-0.5 2.5,-1c11.5,-4 16.9,-4.8 23.9,-8.4c13.1,-6.7 26.2,-21.4 28.8,-36.6c-5,14.6 -20.2,27.2 -34,32.3c-9.5,3.5 -26.6,6.9 -26.6,6.9l-0.7,-0.4c-11.6,-5.7 -12,-30.9 9.2,-39c9.3,-3.6 18.1,-1.6 28.2,-4c10.7,-2.5 23.1,-10.5 28.1,-21c5.6,16.9 12.4,43.1 0.2,59.3z" class="st1"/>
  <path id="svg_12" d="m29.6,215.5c-1.4,1.8 -4,2 -5.8,0.6s-2,-4 -0.6,-5.8s4,-2 5.8,-0.6c1.7,1.4 2,4 0.6,5.8z" class="st1"/>
 </g>
</svg>