<?xml version="1.0" encoding="UTF-8" standalone="no"?>
<!-- Generator: Adobe Illustrator 17.0.2, SVG Export Plug-In . SVG Version: 6.00 Build 0)  -->
<!DOCTYPE svg  PUBLIC '-//W3C//DTD SVG 1.1//EN'  'http://www.w3.org/Graphics/SVG/1.1/DTD/svg11.dtd'>
<svg xmlns="http://www.w3.org/2000/svg" xml:space="preserve" height="140px" width="140px" version="1.1" y="0px" x="0px" xmlns:xlink="http://www.w3.org/1999/xlink" viewBox="0 0 140 140" enable-background="new 0 0 140 140">
<g id="Comp">
	<path d="m140 70.001c0 38.659-31.34 69.999-69.997 69.999-38.664 0-70.003-31.34-70.003-69.999 0-38.661 31.339-70.001 70.003-70.001 38.657 0 69.997 31.34 69.997 70.001z" fill="#DD4814"/>
	<path d="m22.403 60.652c-5.163 0-9.35 4.185-9.35 9.349 0 5.161 4.187 9.345 9.35 9.345 5.162 0 9.345-4.184 9.345-9.345-0.001-5.163-4.183-9.349-9.345-9.349z" fill="#fff"/>
	<path d="m89.13 103.13c-4.471 2.583-6.001 8.295-3.421 12.763 2.579 4.47 8.293 6.002 12.761 3.419 4.471-2.579 6.003-8.291 3.421-12.762-2.575-4.47-8.293-6-12.76-3.42z" fill="#fff"/>
	<path d="m42.703 70.001c0-9.237 4.587-17.396 11.609-22.337l-6.836-11.444c-8.176 5.467-14.26 13.818-16.788 23.6 2.949 2.409 4.841 6.073 4.841 10.18 0 4.105-1.892 7.77-4.841 10.178 2.524 9.786 8.608 18.138 16.788 23.603l6.835-11.446c-7.021-4.938-11.608-13.097-11.608-22.333z" fill="#fff"/>
	<path d="m70.003 42.7c14.258 0 25.959 10.935 27.187 24.879l13.318-0.195c-0.656-10.295-5.154-19.537-12.064-26.334-3.552 1.343-7.657 1.138-11.205-0.908-3.555-2.051-5.784-5.511-6.391-9.267-3.455-0.953-7.09-1.475-10.849-1.475-6.46 0-12.568 1.518-17.991 4.203l6.495 11.636c3.49-1.626 7.388-2.539 11.498-2.539z" fill="#fff"/>
	<path d="m70.003 97.298c-4.11 0-8.008-0.913-11.501-2.539l-6.495 11.636c5.424 2.688 11.532 4.205 17.996 4.205 3.756 0 7.391-0.522 10.845-1.478 0.61-3.756 2.837-7.212 6.391-9.267 3.551-2.048 7.653-2.25 11.205-0.908 6.91-6.797 11.408-16.038 12.064-26.333l-13.323-0.192c-1.225 13.948-12.926 24.878-27.184 24.878z" fill="#fff"/>
	<path d="m89.126 36.866c4.471 2.581 10.184 1.052 12.763-3.417 2.583-4.47 1.051-10.184-3.419-12.766-4.468-2.579-10.182-1.046-12.764 3.424-2.578 4.467-1.048 10.18 3.419 12.759z" fill="#fff"/>
</g>
</svg>
